<svg xmlns="http://www.w3.org/2000/svg" xmlns:xlink="http://www.w3.org/1999/xlink" width="500" zoomAndPan="magnify" viewBox="0 0 375 374.999991" height="500" preserveAspectRatio="xMidYMid meet" version="1.0"><defs><g/><clipPath id="ad3f899ca3"><path d="M 150 72 L 289 72 L 289 294.582031 L 150 294.582031 Z M 150 72 " clip-rule="nonzero"/></clipPath><clipPath id="64ad0021c9"><rect x="0" width="255" y="0" height="80"/></clipPath></defs><g clip-path="url(#ad3f899ca3)"><path fill="#ffffff" d="M 176.722656 78.007812 C 183.492188 78.007812 192.703125 75.890625 200.542969 75.476562 C 224.667969 74.183594 249.410156 78.347656 263.550781 97.179688 C 281.765625 121.453125 272.875 160.261719 259.519531 184.851562 C 244.90625 211.753906 228.210938 227.789062 206.191406 244.296875 C 200.449219 248.59375 197.75 251.761719 192.648438 252.417969 C 188.203125 247.9375 182.03125 245.160156 175.222656 245.160156 C 161.660156 245.160156 150.667969 256.152344 150.667969 269.714844 C 150.667969 283.273438 161.660156 294.265625 175.222656 294.265625 C 188.691406 294.265625 199.625 283.40625 199.757812 269.957031 C 201.070312 269.1875 202.851562 268.175781 205.402344 266.675781 C 211.613281 263.035156 217.539062 259.433594 222.585938 255.664062 L 238.058594 242.945312 C 280.921875 206.554688 311.835938 131.320312 266.308594 89.359375 C 235.097656 60.582031 187.394531 77.726562 176.722656 78.007812 Z M 176.722656 78.007812 " fill-opacity="1" fill-rule="evenodd"/></g><path fill="#ffffff" d="M 166.460938 240.621094 C 154.214844 233.304688 147.871094 233.078125 131.234375 220.417969 C 94.730469 192.695312 73.816406 143.363281 102.460938 106.316406 C 124.464844 77.839844 173.550781 96.953125 182.648438 108.601562 C 183.980469 110.328125 184.84375 112.375 185.464844 114.605469 C 184.46875 117.269531 183.925781 120.140625 183.925781 123.140625 C 183.925781 136.703125 194.917969 147.695312 208.480469 147.695312 C 222.039062 147.695312 233.03125 136.703125 233.03125 123.140625 C 233.03125 109.578125 222.039062 98.585938 208.480469 98.585938 C 206.304688 98.585938 204.183594 98.867188 202.175781 99.410156 C 200.246094 98.492188 197.691406 97.125 194.148438 95.058594 C 182.03125 88.007812 170.230469 81.347656 154.007812 78.796875 C 135.4375 75.871094 122.25 77.992188 108.125 85.8125 C 54.722656 115.46875 70.683594 175.792969 110.546875 211.941406 C 122.023438 222.367188 152.1875 237.695312 166.460938 240.621094 Z M 166.460938 240.621094 " fill-opacity="1" fill-rule="evenodd"/><path fill="#ffffff" d="M 138.136719 142.554688 C 111.257812 142.554688 116.230469 136.984375 116.417969 164.707031 L 138.117188 165.175781 L 138.136719 186.878906 L 160.683594 186.839844 L 160.683594 165.550781 L 182.367188 165.082031 L 182.425781 142.628906 L 160.910156 142.515625 L 160.664062 120.851562 L 138.136719 120.851562 Z M 138.136719 142.554688 " fill-opacity="1" fill-rule="evenodd"/><g transform="matrix(1, 0, 0, 1, 18, 167)"><g clip-path="url(#64ad0021c9)"><g fill="#ffffff" fill-opacity="1"><g transform="translate(6.686226, 58.431718)"><g><path d="M 8.515625 7.515625 C 6.941406 7.515625 5.484375 7.273438 4.132812 6.792969 C 2.535156 6.21875 1.15625 5.339844 -0.0078125 4.152344 C -1.148438 2.984375 -1.988281 1.613281 -2.535156 0.0351562 C -3 -1.296875 -3.230469 -2.738281 -3.230469 -4.285156 L -3.230469 -35.996094 C -3.230469 -37.609375 -2.976562 -39.105469 -2.46875 -40.480469 C -1.867188 -42.117188 -0.945312 -43.515625 0.304688 -44.683594 C 1.492188 -45.792969 2.878906 -46.609375 4.472656 -47.136719 C 5.804688 -47.578125 7.246094 -47.800781 8.800781 -47.800781 C 11.53125 -47.800781 13.871094 -47.15625 15.820312 -45.875 C 17.570312 -44.722656 19.046875 -43.046875 20.253906 -40.851562 L 38.3125 -8.425781 L 12.511719 -8.425781 L 30.503906 -40.878906 C 31.785156 -43.089844 33.277344 -44.753906 34.976562 -45.875 C 36.925781 -47.15625 39.265625 -47.800781 41.996094 -47.800781 C 43.550781 -47.800781 44.996094 -47.566406 46.328125 -47.097656 C 47.921875 -46.542969 49.300781 -45.683594 50.460938 -44.519531 C 51.632812 -43.347656 52.496094 -41.953125 53.054688 -40.339844 C 53.511719 -39.007812 53.742188 -37.558594 53.742188 -35.996094 L 53.742188 -4.285156 C 53.742188 -2.753906 53.519531 -1.328125 53.070312 -0.0117188 C 52.539062 1.558594 51.71875 2.925781 50.605469 4.089844 C 49.4375 5.316406 48.035156 6.214844 46.394531 6.796875 C 45.046875 7.277344 43.582031 7.515625 41.996094 7.515625 C 40.425781 7.515625 38.964844 7.273438 37.617188 6.792969 C 36.019531 6.21875 34.636719 5.339844 33.476562 4.152344 C 32.335938 2.984375 31.496094 1.613281 30.949219 0.0351562 C 30.484375 -1.296875 30.253906 -2.738281 30.253906 -4.285156 L 30.253906 -30.941406 L 50.554688 -30.941406 L 35.246094 -4.316406 L 35.160156 -4.183594 C 34.136719 -2.574219 32.957031 -1.296875 31.621094 -0.347656 C 29.816406 0.933594 27.675781 1.574219 25.199219 1.574219 C 22.796875 1.574219 20.695312 0.953125 18.890625 -0.289062 C 17.429688 -1.289062 16.191406 -2.65625 15.171875 -4.378906 L -0.175781 -31 L 20.257812 -31 L 20.257812 -4.285156 C 20.257812 -2.753906 20.035156 -1.328125 19.585938 -0.0117188 C 19.054688 1.558594 18.234375 2.925781 17.121094 4.089844 C 15.953125 5.316406 14.550781 6.214844 12.910156 6.796875 C 11.5625 7.277344 10.097656 7.515625 8.515625 7.515625 Z M 8.515625 -6.488281 C 8.542969 -6.488281 8.566406 -6.488281 8.582031 -6.488281 C 8.578125 -6.488281 8.570312 -6.488281 8.554688 -6.484375 C 8.460938 -6.46875 8.351562 -6.441406 8.230469 -6.398438 C 7.773438 -6.234375 7.359375 -5.960938 6.992188 -5.578125 C 6.679688 -5.25 6.457031 -4.890625 6.324219 -4.503906 C 6.289062 -4.398438 6.265625 -4.308594 6.253906 -4.230469 C 6.253906 -4.222656 6.253906 -4.214844 6.253906 -4.214844 C 6.253906 -4.234375 6.253906 -4.257812 6.253906 -4.285156 L 6.253906 -24 L 13.257812 -24 L 13.257812 -16.996094 L 11.941406 -16.996094 L 11.941406 -24 L 18.007812 -27.496094 L 27.226562 -11.503906 C 27.246094 -11.46875 27.265625 -11.441406 27.277344 -11.421875 C 27.273438 -11.429688 27.261719 -11.445312 27.242188 -11.464844 C 27.136719 -11.585938 26.996094 -11.707031 26.820312 -11.824219 C 26.464844 -12.070312 26.097656 -12.246094 25.710938 -12.347656 C 25.507812 -12.402344 25.335938 -12.429688 25.199219 -12.429688 C 25.085938 -12.429688 24.933594 -12.402344 24.742188 -12.351562 C 24.320312 -12.242188 23.910156 -12.046875 23.519531 -11.765625 C 23.386719 -11.671875 23.285156 -11.585938 23.214844 -11.507812 C 23.242188 -11.539062 23.285156 -11.601562 23.347656 -11.699219 L 29.253906 -7.941406 L 23.1875 -11.433594 L 32.386719 -27.429688 L 38.453125 -23.941406 L 38.453125 -16.941406 L 37.253906 -16.941406 L 37.253906 -23.941406 L 44.257812 -23.941406 L 44.257812 -4.285156 C 44.257812 -4.261719 44.257812 -4.242188 44.257812 -4.226562 C 44.257812 -4.230469 44.257812 -4.242188 44.253906 -4.253906 C 44.242188 -4.339844 44.214844 -4.441406 44.175781 -4.550781 C 44.039062 -4.945312 43.8125 -5.308594 43.492188 -5.636719 C 43.148438 -5.988281 42.761719 -6.238281 42.335938 -6.390625 C 42.210938 -6.4375 42.097656 -6.464844 41.996094 -6.480469 L 41.996094 -6.488281 C 42.027344 -6.488281 42.050781 -6.488281 42.066406 -6.488281 C 42.0625 -6.488281 42.054688 -6.488281 42.039062 -6.484375 C 41.945312 -6.46875 41.835938 -6.441406 41.714844 -6.398438 C 41.257812 -6.234375 40.84375 -5.960938 40.476562 -5.578125 C 40.164062 -5.25 39.941406 -4.890625 39.808594 -4.503906 C 39.773438 -4.398438 39.75 -4.308594 39.738281 -4.230469 C 39.738281 -4.222656 39.738281 -4.214844 39.738281 -4.214844 C 39.738281 -4.234375 39.738281 -4.257812 39.738281 -4.285156 L 39.738281 -35.996094 C 39.738281 -36.03125 39.738281 -36.058594 39.738281 -36.078125 L 39.738281 -36.070312 C 39.75 -35.988281 39.777344 -35.894531 39.8125 -35.785156 C 39.957031 -35.359375 40.207031 -34.972656 40.5625 -34.617188 C 40.90625 -34.273438 41.289062 -34.027344 41.707031 -33.882812 C 41.824219 -33.839844 41.929688 -33.8125 42.023438 -33.800781 C 42.039062 -33.796875 42.046875 -33.796875 42.054688 -33.796875 C 42.039062 -33.796875 42.023438 -33.796875 41.996094 -33.796875 C 41.914062 -33.796875 41.847656 -33.792969 41.796875 -33.789062 C 41.8125 -33.792969 41.835938 -33.796875 41.859375 -33.800781 C 42.117188 -33.863281 42.390625 -33.992188 42.675781 -34.179688 C 42.828125 -34.277344 42.929688 -34.359375 42.984375 -34.425781 C 42.90625 -34.332031 42.828125 -34.21875 42.75 -34.089844 L 30.523438 -12.03125 L 24.398438 -15.425781 L 24.398438 -22.429688 L 26.398438 -22.429688 L 26.398438 -15.425781 L 20.28125 -12.019531 L 7.976562 -34.117188 C 7.875 -34.300781 7.796875 -34.425781 7.738281 -34.492188 C 7.816406 -34.398438 7.945312 -34.292969 8.121094 -34.179688 C 8.40625 -33.992188 8.679688 -33.863281 8.9375 -33.800781 C 8.960938 -33.796875 8.984375 -33.792969 9 -33.789062 C 8.949219 -33.792969 8.882812 -33.796875 8.800781 -33.796875 C 8.734375 -33.796875 8.691406 -33.796875 8.667969 -33.792969 C 8.71875 -33.800781 8.789062 -33.816406 8.871094 -33.84375 C 9.222656 -33.960938 9.554688 -34.164062 9.867188 -34.453125 C 10.238281 -34.800781 10.507812 -35.199219 10.671875 -35.644531 C 10.71875 -35.773438 10.75 -35.894531 10.765625 -36 L 10.773438 -35.996094 L 10.773438 -4.285156 C 10.773438 -4.261719 10.773438 -4.242188 10.773438 -4.226562 C 10.773438 -4.230469 10.773438 -4.242188 10.769531 -4.253906 C 10.757812 -4.339844 10.730469 -4.441406 10.691406 -4.550781 C 10.554688 -4.945312 10.328125 -5.308594 10.007812 -5.636719 C 9.664062 -5.988281 9.277344 -6.238281 8.851562 -6.390625 C 8.726562 -6.4375 8.613281 -6.464844 8.511719 -6.480469 Z M 8.515625 -6.488281 "/></g></g></g><g fill="#ffffff" fill-opacity="1"><g transform="translate(54.051479, 58.431718)"><g><path d="M 9.140625 7 C 7.46875 7 5.925781 6.757812 4.507812 6.273438 C 2.804688 5.6875 1.335938 4.78125 0.105469 3.550781 C -1.117188 2.328125 -2.019531 0.875 -2.605469 -0.808594 C -3.097656 -2.222656 -3.34375 -3.765625 -3.34375 -5.429688 L -3.34375 -34.855469 C -3.34375 -36.519531 -3.097656 -38.058594 -2.605469 -39.476562 C -2.019531 -41.15625 -1.117188 -42.609375 0.105469 -43.835938 C 1.335938 -45.066406 2.804688 -45.972656 4.507812 -46.554688 C 5.925781 -47.042969 7.46875 -47.285156 9.140625 -47.285156 L 28.511719 -47.285156 C 29.957031 -47.285156 31.292969 -47.078125 32.527344 -46.667969 C 34.085938 -46.148438 35.425781 -45.328125 36.546875 -44.207031 C 37.652344 -43.105469 38.464844 -41.796875 38.984375 -40.289062 C 39.414062 -39.050781 39.628906 -37.714844 39.628906 -36.285156 C 39.628906 -34.851562 39.421875 -33.519531 39.003906 -32.285156 C 38.496094 -30.773438 37.699219 -29.457031 36.617188 -28.34375 C 35.496094 -27.191406 34.152344 -26.347656 32.582031 -25.8125 C 31.332031 -25.382812 29.976562 -25.167969 28.511719 -25.167969 L 13.714844 -25.167969 L 13.714844 -32.167969 L 20.714844 -32.167969 L 20.714844 -24.511719 L 13.714844 -24.511719 L 13.714844 -31.515625 L 27.253906 -31.515625 C 28.6875 -31.515625 30.019531 -31.304688 31.253906 -30.890625 C 32.769531 -30.382812 34.082031 -29.585938 35.195312 -28.503906 C 36.335938 -27.390625 37.175781 -26.0625 37.714844 -24.519531 C 38.152344 -23.269531 38.371094 -21.914062 38.371094 -20.457031 C 38.371094 -19 38.152344 -17.644531 37.714844 -16.390625 C 37.175781 -14.847656 36.335938 -13.519531 35.195312 -12.410156 C 34.082031 -11.328125 32.769531 -10.53125 31.253906 -10.019531 C 30.019531 -9.605469 28.6875 -9.398438 27.253906 -9.398438 L 13.714844 -9.398438 L 13.714844 -16.398438 L 20.714844 -16.398438 L 20.714844 -8.113281 L 13.714844 -8.113281 L 13.714844 -15.113281 L 28.511719 -15.113281 C 29.976562 -15.113281 31.332031 -14.902344 32.582031 -14.472656 C 34.152344 -13.933594 35.496094 -13.089844 36.617188 -11.9375 C 37.6875 -10.835938 38.480469 -9.539062 38.992188 -8.050781 C 39.414062 -6.8125 39.628906 -5.480469 39.628906 -4.058594 C 39.628906 -2.621094 39.417969 -1.28125 39 -0.046875 C 38.476562 1.488281 37.660156 2.808594 36.546875 3.921875 C 35.425781 5.042969 34.085938 5.863281 32.527344 6.382812 C 31.292969 6.796875 29.957031 7 28.511719 7 Z M 9.140625 -7 L 28.511719 -7 C 28.527344 -7 28.539062 -7 28.546875 -7 C 28.53125 -7 28.511719 -7 28.488281 -6.996094 C 28.371094 -6.976562 28.242188 -6.945312 28.097656 -6.898438 C 27.566406 -6.722656 27.085938 -6.414062 26.648438 -5.980469 C 26.222656 -5.550781 25.917969 -5.078125 25.742188 -4.550781 C 25.664062 -4.324219 25.625 -4.160156 25.625 -4.058594 C 25.625 -3.925781 25.667969 -3.742188 25.746094 -3.507812 C 25.914062 -3.015625 26.191406 -2.574219 26.582031 -2.175781 C 27.015625 -1.726562 27.503906 -1.410156 28.042969 -1.226562 C 28.265625 -1.152344 28.421875 -1.113281 28.511719 -1.113281 L 6.710938 -1.113281 L 6.710938 -23.398438 L 27.253906 -23.398438 C 27.15625 -23.398438 27.003906 -23.363281 26.789062 -23.292969 C 26.289062 -23.125 25.839844 -22.84375 25.429688 -22.445312 C 24.992188 -22.019531 24.683594 -21.539062 24.496094 -21.007812 C 24.410156 -20.765625 24.367188 -20.582031 24.367188 -20.457031 C 24.367188 -20.332031 24.410156 -20.148438 24.496094 -19.90625 C 24.683594 -19.371094 24.992188 -18.890625 25.429688 -18.464844 C 25.839844 -18.070312 26.289062 -17.789062 26.789062 -17.621094 C 27.003906 -17.546875 27.15625 -17.511719 27.253906 -17.511719 L 6.710938 -17.511719 L 6.710938 -39.171875 L 28.511719 -39.171875 C 28.421875 -39.171875 28.265625 -39.132812 28.042969 -39.058594 C 27.503906 -38.871094 27.015625 -38.554688 26.582031 -38.109375 C 26.183594 -37.699219 25.902344 -37.25 25.734375 -36.753906 C 25.660156 -36.539062 25.625 -36.382812 25.625 -36.285156 C 25.625 -36.144531 25.667969 -35.953125 25.753906 -35.707031 C 25.933594 -35.1875 26.230469 -34.722656 26.648438 -34.304688 C 27.085938 -33.867188 27.566406 -33.5625 28.097656 -33.382812 C 28.242188 -33.335938 28.371094 -33.304688 28.488281 -33.289062 C 28.511719 -33.285156 28.53125 -33.28125 28.546875 -33.28125 C 28.539062 -33.28125 28.527344 -33.28125 28.511719 -33.28125 L 9.140625 -33.28125 C 9.039062 -33.28125 8.960938 -33.277344 8.90625 -33.269531 C 8.933594 -33.273438 8.984375 -33.289062 9.046875 -33.308594 C 9.390625 -33.425781 9.710938 -33.636719 10.007812 -33.933594 C 10.296875 -34.222656 10.5 -34.539062 10.621094 -34.878906 C 10.644531 -34.953125 10.660156 -35.007812 10.667969 -35.050781 C 10.660156 -35.007812 10.65625 -34.945312 10.65625 -34.855469 L 10.65625 -5.429688 C 10.65625 -5.339844 10.660156 -5.277344 10.667969 -5.234375 C 10.660156 -5.277344 10.644531 -5.332031 10.621094 -5.40625 C 10.5 -5.746094 10.296875 -6.058594 10.007812 -6.351562 C 9.710938 -6.648438 9.390625 -6.855469 9.046875 -6.972656 C 8.984375 -6.996094 8.933594 -7.007812 8.90625 -7.011719 C 8.960938 -7.003906 9.039062 -7 9.140625 -7 Z M 9.140625 -7 "/></g></g></g><g fill="#ffffff" fill-opacity="1"><g transform="translate(85.98991, 58.431718)"><g><path d="M 9.140625 7 C 7.46875 7 5.925781 6.757812 4.507812 6.273438 C 2.804688 5.6875 1.335938 4.78125 0.105469 3.550781 C -1.117188 2.328125 -2.019531 0.875 -2.605469 -0.808594 C -3.097656 -2.222656 -3.34375 -3.765625 -3.34375 -5.429688 L -3.34375 -34.855469 C -3.34375 -36.519531 -3.097656 -38.058594 -2.605469 -39.476562 C -2.019531 -41.15625 -1.117188 -42.609375 0.105469 -43.835938 C 1.335938 -45.066406 2.804688 -45.972656 4.507812 -46.554688 C 5.925781 -47.042969 7.46875 -47.285156 9.140625 -47.285156 L 20.339844 -47.285156 C 29.164062 -47.285156 36.160156 -44.921875 41.324219 -40.191406 C 44.046875 -37.699219 46.082031 -34.707031 47.433594 -31.207031 C 48.707031 -27.921875 49.339844 -24.242188 49.339844 -20.171875 C 49.339844 -16.078125 48.683594 -12.371094 47.363281 -9.046875 C 45.984375 -5.570312 43.972656 -2.605469 41.332031 -0.15625 C 38.71875 2.273438 35.5625 4.09375 31.871094 5.308594 C 28.4375 6.4375 24.59375 7 20.339844 7 Z M 9.140625 -7 L 20.339844 -7 C 23.097656 -7 25.484375 -7.332031 27.5 -7.992188 C 29.25 -8.570312 30.6875 -9.378906 31.804688 -10.414062 C 32.898438 -11.429688 33.746094 -12.695312 34.347656 -14.210938 C 35.007812 -15.875 35.339844 -17.863281 35.339844 -20.171875 C 35.339844 -22.5 35.019531 -24.496094 34.375 -26.160156 C 33.8125 -27.613281 32.976562 -28.847656 31.871094 -29.863281 C 29.378906 -32.140625 25.539062 -33.28125 20.339844 -33.28125 L 9.140625 -33.28125 C 9.039062 -33.28125 8.960938 -33.277344 8.90625 -33.269531 C 8.933594 -33.273438 8.984375 -33.289062 9.046875 -33.308594 C 9.390625 -33.425781 9.710938 -33.636719 10.007812 -33.933594 C 10.296875 -34.222656 10.5 -34.539062 10.621094 -34.878906 C 10.644531 -34.953125 10.660156 -35.007812 10.667969 -35.050781 C 10.660156 -35.007812 10.65625 -34.945312 10.65625 -34.855469 L 10.65625 -5.429688 C 10.65625 -5.339844 10.660156 -5.277344 10.667969 -5.234375 C 10.660156 -5.277344 10.644531 -5.332031 10.621094 -5.40625 C 10.5 -5.746094 10.296875 -6.058594 10.007812 -6.351562 C 9.710938 -6.648438 9.390625 -6.855469 9.046875 -6.972656 C 8.984375 -6.996094 8.933594 -7.007812 8.90625 -7.011719 C 8.960938 -7.003906 9.039062 -7 9.140625 -7 Z M 14.171875 -15.515625 L 19.65625 -15.515625 C 20.910156 -15.515625 21.90625 -15.640625 22.644531 -15.890625 C 23.097656 -16.042969 23.429688 -16.222656 23.640625 -16.425781 C 23.800781 -16.585938 23.941406 -16.847656 24.0625 -17.214844 C 24.304688 -17.953125 24.425781 -18.9375 24.425781 -20.171875 C 24.425781 -21.394531 24.300781 -22.382812 24.054688 -23.125 C 23.929688 -23.503906 23.789062 -23.769531 23.636719 -23.917969 C 23.453125 -24.097656 23.144531 -24.253906 22.710938 -24.394531 C 21.929688 -24.644531 20.910156 -24.769531 19.65625 -24.769531 L 14.171875 -24.769531 L 14.171875 -31.769531 L 21.171875 -31.769531 L 21.171875 -8.515625 L 14.171875 -8.515625 Z M 7.167969 -1.511719 L 7.167969 -38.769531 L 19.65625 -38.769531 C 25.511719 -38.769531 30.089844 -37.167969 33.390625 -33.964844 C 36.75 -30.703125 38.429688 -26.105469 38.429688 -20.171875 C 38.429688 -17.441406 38.074219 -15 37.363281 -12.839844 C 36.53125 -10.3125 35.226562 -8.175781 33.441406 -6.429688 C 31.707031 -4.730469 29.601562 -3.460938 27.125 -2.625 C 24.929688 -1.882812 22.441406 -1.511719 19.65625 -1.511719 Z M 7.167969 -1.511719 "/></g></g></g><g fill="#ffffff" fill-opacity="1"><g transform="translate(127.755805, 58.431718)"><g><path d="M 8.914062 7.515625 C 7.261719 7.515625 5.726562 7.261719 4.3125 6.75 C 2.660156 6.15625 1.230469 5.242188 0.0273438 4.011719 C -1.164062 2.796875 -2.046875 1.359375 -2.617188 -0.292969 C -3.101562 -1.695312 -3.34375 -3.214844 -3.34375 -4.855469 L -3.34375 -35.425781 C -3.34375 -37.082031 -3.105469 -38.609375 -2.621094 -40.011719 C -2.042969 -41.699219 -1.144531 -43.15625 0.078125 -44.375 C 1.285156 -45.582031 2.710938 -46.476562 4.355469 -47.058594 C 5.757812 -47.550781 7.277344 -47.800781 8.914062 -47.800781 C 10.566406 -47.800781 12.089844 -47.554688 13.492188 -47.0625 C 15.175781 -46.472656 16.621094 -45.5625 17.832031 -44.324219 C 19.027344 -43.101562 19.90625 -41.652344 20.472656 -39.96875 C 20.9375 -38.578125 21.171875 -37.066406 21.171875 -35.425781 L 21.171875 -4.855469 C 21.171875 -1.296875 20.101562 1.625 17.960938 3.90625 C 16.75 5.199219 15.28125 6.148438 13.554688 6.761719 C 12.140625 7.265625 10.59375 7.515625 8.914062 7.515625 Z M 8.914062 -6.488281 C 9 -6.488281 9.058594 -6.488281 9.09375 -6.496094 C 9.035156 -6.484375 8.960938 -6.464844 8.871094 -6.433594 C 8.460938 -6.289062 8.089844 -6.035156 7.753906 -5.675781 C 7.484375 -5.394531 7.300781 -5.09375 7.195312 -4.777344 C 7.175781 -4.71875 7.164062 -4.671875 7.160156 -4.644531 C 7.167969 -4.691406 7.167969 -4.761719 7.167969 -4.855469 L 7.167969 -35.425781 C 7.167969 -35.527344 7.164062 -35.605469 7.15625 -35.65625 C 7.164062 -35.625 7.175781 -35.578125 7.199219 -35.511719 C 7.316406 -35.164062 7.523438 -34.835938 7.824219 -34.527344 C 8.140625 -34.207031 8.488281 -33.980469 8.863281 -33.847656 C 8.949219 -33.816406 9.019531 -33.796875 9.074219 -33.789062 C 9.042969 -33.792969 8.992188 -33.796875 8.914062 -33.796875 C 8.851562 -33.796875 8.8125 -33.796875 8.792969 -33.792969 C 8.851562 -33.800781 8.925781 -33.820312 9.015625 -33.851562 C 9.367188 -33.976562 9.6875 -34.183594 9.980469 -34.476562 C 10.285156 -34.78125 10.5 -35.113281 10.621094 -35.46875 C 10.648438 -35.542969 10.664062 -35.597656 10.667969 -35.636719 C 10.660156 -35.589844 10.65625 -35.519531 10.65625 -35.425781 L 10.65625 -4.855469 C 10.65625 -4.777344 10.660156 -4.71875 10.664062 -4.6875 C 10.660156 -4.730469 10.644531 -4.789062 10.617188 -4.863281 C 10.503906 -5.195312 10.308594 -5.5 10.03125 -5.785156 C 9.738281 -6.082031 9.414062 -6.292969 9.058594 -6.421875 C 8.964844 -6.457031 8.882812 -6.480469 8.8125 -6.488281 C 8.824219 -6.488281 8.859375 -6.488281 8.914062 -6.488281 Z M 8.914062 -6.488281 "/></g></g></g><g fill="#ffffff" fill-opacity="1"><g transform="translate(142.439033, 58.431718)"><g><path d="M 18.628906 7.628906 C 16.808594 7.628906 14.925781 7.507812 12.976562 7.261719 C 10.976562 7.007812 9.0625 6.625 7.242188 6.109375 C 5.359375 5.578125 3.644531 4.9375 2.09375 4.1875 C -0.34375 3.015625 -2.128906 1.320312 -3.261719 -0.898438 C -4.335938 -2.996094 -4.726562 -5.214844 -4.433594 -7.554688 C -4.164062 -9.707031 -3.386719 -11.636719 -2.097656 -13.339844 C -0.617188 -15.292969 1.3125 -16.605469 3.695312 -17.28125 C 6.203125 -17.988281 8.78125 -17.75 11.433594 -16.558594 C 12.46875 -16.070312 13.628906 -15.691406 14.914062 -15.425781 C 16.269531 -15.140625 17.507812 -15 18.628906 -15 C 19.445312 -15 20.082031 -15.042969 20.53125 -15.128906 C 20.589844 -15.140625 20.632812 -15.148438 20.667969 -15.15625 L 20.675781 -15.160156 C 20.664062 -15.15625 20.652344 -15.152344 20.636719 -15.148438 C 20.460938 -15.082031 20.265625 -14.980469 20.054688 -14.839844 C 19.6875 -14.601562 19.359375 -14.242188 19.070312 -13.761719 C 18.640625 -13.058594 18.425781 -12.300781 18.425781 -11.484375 C 18.425781 -10.820312 18.585938 -10.171875 18.902344 -9.539062 C 19.210938 -8.917969 19.628906 -8.410156 20.144531 -8.015625 C 20.300781 -7.898438 20.445312 -7.804688 20.574219 -7.742188 C 20.585938 -7.734375 20.59375 -7.730469 20.59375 -7.730469 C 20.566406 -7.742188 20.535156 -7.753906 20.496094 -7.769531 C 20.183594 -7.882812 19.742188 -8 19.171875 -8.121094 L 12.480469 -9.550781 C 7.40625 -10.609375 3.46875 -12.625 0.671875 -15.605469 C -0.882812 -17.253906 -2.046875 -19.144531 -2.820312 -21.273438 C -3.550781 -23.277344 -3.914062 -25.441406 -3.914062 -27.769531 C -3.914062 -30.863281 -3.253906 -33.71875 -1.933594 -36.328125 C -0.628906 -38.910156 1.203125 -41.09375 3.566406 -42.886719 C 5.738281 -44.539062 8.261719 -45.796875 11.140625 -46.671875 C 13.878906 -47.5 16.871094 -47.914062 20.113281 -47.914062 C 22.589844 -47.914062 25.089844 -47.640625 27.613281 -47.101562 C 30.390625 -46.503906 32.847656 -45.574219 34.984375 -44.3125 L 31.425781 -38.285156 L 34.664062 -44.492188 C 36.925781 -43.3125 38.582031 -41.617188 39.632812 -39.40625 C 40.5625 -37.457031 40.933594 -35.417969 40.742188 -33.292969 C 40.542969 -31.042969 39.75 -29.042969 38.367188 -27.300781 C 36.859375 -25.402344 34.898438 -24.15625 32.488281 -23.570312 C 30.136719 -22.992188 27.660156 -23.25 25.0625 -24.34375 L 24.984375 -24.375 L 24.90625 -24.410156 C 24.324219 -24.667969 23.625 -24.875 22.800781 -25.019531 C 21.816406 -25.195312 20.882812 -25.28125 20 -25.28125 C 19.332031 -25.28125 18.859375 -25.238281 18.574219 -25.144531 C 18.613281 -25.15625 18.683594 -25.195312 18.78125 -25.257812 C 19.035156 -25.414062 19.273438 -25.621094 19.492188 -25.882812 C 20.078125 -26.578125 20.371094 -27.378906 20.371094 -28.285156 C 20.371094 -28.972656 20.214844 -29.636719 19.898438 -30.273438 C 19.625 -30.828125 19.273438 -31.285156 18.835938 -31.648438 C 18.644531 -31.804688 18.464844 -31.929688 18.292969 -32.023438 C 18.261719 -32.039062 18.238281 -32.050781 18.222656 -32.058594 C 18.234375 -32.054688 18.253906 -32.046875 18.277344 -32.035156 C 18.558594 -31.929688 18.96875 -31.820312 19.511719 -31.703125 L 26.160156 -30.269531 C 31.199219 -29.179688 35.121094 -27.234375 37.921875 -24.433594 C 39.535156 -22.820312 40.75 -20.953125 41.5625 -18.835938 C 42.328125 -16.839844 42.714844 -14.675781 42.714844 -12.34375 C 42.714844 -9.257812 42.066406 -6.425781 40.773438 -3.839844 C 39.484375 -1.265625 37.664062 0.914062 35.308594 2.699219 C 33.136719 4.339844 30.589844 5.585938 27.667969 6.4375 C 24.933594 7.230469 21.921875 7.628906 18.628906 7.628906 Z M 18.628906 -6.371094 C 20.589844 -6.371094 22.300781 -6.585938 23.757812 -7.007812 C 25.027344 -7.378906 26.0625 -7.863281 26.859375 -8.46875 C 27.476562 -8.933594 27.9375 -9.480469 28.25 -10.101562 C 28.558594 -10.714844 28.710938 -11.464844 28.710938 -12.34375 C 28.710938 -12.945312 28.636719 -13.433594 28.492188 -13.816406 C 28.390625 -14.082031 28.230469 -14.320312 28.019531 -14.535156 C 27.671875 -14.878906 27.171875 -15.207031 26.519531 -15.519531 C 25.625 -15.945312 24.523438 -16.300781 23.210938 -16.582031 L 16.597656 -18.007812 C 13.6875 -18.628906 11.453125 -19.578125 9.902344 -20.863281 C 8.804688 -21.777344 7.949219 -22.847656 7.339844 -24.082031 C 6.695312 -25.394531 6.371094 -26.796875 6.371094 -28.285156 C 6.371094 -30.789062 7.175781 -33 8.792969 -34.914062 C 10.160156 -36.535156 11.972656 -37.714844 14.222656 -38.453125 C 15.921875 -39.007812 17.847656 -39.285156 20 -39.285156 C 21.707031 -39.285156 23.457031 -39.125 25.253906 -38.804688 C 27.210938 -38.457031 29.003906 -37.917969 30.632812 -37.1875 L 27.769531 -30.796875 L 30.476562 -37.253906 C 30.523438 -37.234375 30.558594 -37.222656 30.574219 -37.21875 C 30.53125 -37.230469 30.46875 -37.242188 30.390625 -37.253906 C 30.015625 -37.304688 29.605469 -37.277344 29.164062 -37.171875 C 28.46875 -37 27.882812 -36.613281 27.402344 -36.007812 C 27.046875 -35.5625 26.84375 -35.070312 26.796875 -34.53125 C 26.757812 -34.121094 26.824219 -33.738281 26.992188 -33.386719 C 27.28125 -32.777344 27.679688 -32.339844 28.1875 -32.078125 L 28.027344 -32.160156 L 27.871094 -32.253906 C 27.035156 -32.746094 25.96875 -33.132812 24.671875 -33.410156 C 23.117188 -33.742188 21.597656 -33.910156 20.113281 -33.910156 C 18.253906 -33.910156 16.613281 -33.695312 15.199219 -33.269531 C 13.925781 -32.882812 12.871094 -32.371094 12.035156 -31.738281 C 11.386719 -31.246094 10.894531 -30.667969 10.5625 -30.007812 C 10.246094 -29.382812 10.085938 -28.636719 10.085938 -27.769531 C 10.085938 -26.609375 10.347656 -25.75 10.871094 -25.195312 C 11.183594 -24.863281 11.636719 -24.550781 12.234375 -24.257812 C 13.070312 -23.847656 14.125 -23.511719 15.40625 -23.246094 L 22.085938 -21.820312 C 24.890625 -21.222656 27.0625 -20.34375 28.59375 -19.183594 C 29.816406 -18.257812 30.761719 -17.128906 31.425781 -15.800781 C 32.09375 -14.464844 32.429688 -13.023438 32.429688 -11.484375 C 32.429688 -9.679688 31.960938 -8.011719 31.027344 -6.476562 C 30.230469 -5.171875 29.148438 -4.066406 27.769531 -3.15625 C 26.484375 -2.308594 24.9375 -1.710938 23.136719 -1.371094 C 21.824219 -1.121094 20.320312 -1 18.628906 -1 C 16.546875 -1 14.355469 -1.238281 12.058594 -1.71875 C 9.683594 -2.210938 7.566406 -2.898438 5.707031 -3.78125 C 5.792969 -3.746094 5.933594 -3.710938 6.132812 -3.6875 C 6.574219 -3.632812 7.03125 -3.671875 7.503906 -3.804688 C 8.136719 -3.984375 8.65625 -4.34375 9.066406 -4.890625 C 9.289062 -5.179688 9.421875 -5.492188 9.460938 -5.816406 C 9.523438 -6.328125 9.4375 -6.8125 9.203125 -7.273438 C 9.027344 -7.621094 8.800781 -7.917969 8.535156 -8.160156 C 8.394531 -8.289062 8.28125 -8.375 8.191406 -8.417969 C 9.003906 -8.023438 9.953125 -7.675781 11.042969 -7.367188 C 12.191406 -7.042969 13.421875 -6.796875 14.734375 -6.632812 C 16.101562 -6.457031 17.398438 -6.371094 18.628906 -6.371094 Z M 18.628906 -6.371094 "/></g></g></g><g fill="#ffffff" fill-opacity="1"><g transform="translate(176.491508, 58.431718)"><g><path d="M 18.398438 7.515625 C 16.746094 7.515625 15.210938 7.261719 13.796875 6.75 C 12.144531 6.15625 10.714844 5.242188 9.511719 4.011719 C 8.3125 2.789062 7.429688 1.339844 6.855469 -0.335938 C 6.378906 -1.738281 6.140625 -3.265625 6.140625 -4.914062 L 6.140625 -20.570312 L 19.695312 -23.035156 L 21.867188 -17.265625 L 9.5625 -10.804688 L -3.578125 -29.71875 C -5.1875 -31.988281 -5.871094 -34.535156 -5.632812 -37.359375 C -5.511719 -38.777344 -5.152344 -40.109375 -4.554688 -41.355469 C -3.957031 -42.601562 -3.144531 -43.714844 -2.117188 -44.691406 C -0.953125 -45.804688 0.417969 -46.621094 1.992188 -47.148438 C 3.296875 -47.582031 4.707031 -47.800781 6.226562 -47.800781 C 8.5625 -47.800781 10.714844 -47.21875 12.6875 -46.0625 C 14.550781 -44.96875 16.167969 -43.328125 17.535156 -41.136719 L 11.597656 -37.425781 L 17.390625 -41.363281 L 32.820312 -18.65625 L 4.355469 -18.65625 L 19.742188 -41.40625 C 21.101562 -43.476562 22.664062 -45.035156 24.4375 -46.082031 C 26.375 -47.226562 28.550781 -47.800781 30.96875 -47.800781 C 34.214844 -47.800781 36.90625 -46.832031 39.039062 -44.902344 C 40.132812 -43.910156 40.988281 -42.761719 41.601562 -41.457031 C 42.203125 -40.171875 42.542969 -38.796875 42.617188 -37.332031 C 42.753906 -34.683594 42.015625 -32.144531 40.394531 -29.714844 L 27.296875 -10.8125 L 14.96875 -17.207031 L 17.082031 -22.980469 L 30.65625 -20.570312 L 30.65625 -4.914062 C 30.65625 -1.214844 29.5625 1.765625 27.371094 4.027344 C 26.15625 5.28125 24.691406 6.203125 22.976562 6.792969 C 21.582031 7.273438 20.054688 7.515625 18.398438 7.515625 Z M 18.398438 -6.488281 C 18.496094 -6.488281 18.566406 -6.488281 18.609375 -6.496094 C 18.5625 -6.488281 18.5 -6.472656 18.421875 -6.445312 C 18.019531 -6.308594 17.652344 -6.0625 17.3125 -5.714844 C 16.996094 -5.386719 16.777344 -5.042969 16.664062 -4.691406 C 16.652344 -4.652344 16.644531 -4.621094 16.636719 -4.597656 L 16.640625 -4.601562 C 16.648438 -4.679688 16.65625 -4.78125 16.65625 -4.914062 L 16.65625 -20.570312 L 23.65625 -20.570312 L 30.230469 -18.160156 L 28.117188 -12.390625 L 21.542969 -14.800781 L 15.789062 -18.785156 L 28.746094 -37.480469 C 28.765625 -37.511719 28.777344 -37.53125 28.78125 -37.539062 C 28.761719 -37.503906 28.742188 -37.453125 28.726562 -37.394531 C 28.648438 -37.15625 28.621094 -36.894531 28.636719 -36.609375 C 28.652344 -36.246094 28.75 -35.882812 28.921875 -35.511719 C 29.105469 -35.117188 29.347656 -34.789062 29.644531 -34.519531 C 29.988281 -34.207031 30.359375 -33.988281 30.753906 -33.863281 C 30.855469 -33.828125 30.941406 -33.808594 31.019531 -33.796875 C 31.027344 -33.796875 31.035156 -33.796875 31.035156 -33.796875 C 31.019531 -33.796875 30.996094 -33.796875 30.96875 -33.796875 C 30.957031 -33.796875 30.949219 -33.796875 30.941406 -33.796875 C 30.941406 -33.796875 30.945312 -33.796875 30.949219 -33.796875 C 30.980469 -33.800781 31.023438 -33.808594 31.066406 -33.820312 C 31.230469 -33.859375 31.394531 -33.929688 31.558594 -34.027344 C 31.695312 -34.109375 31.78125 -34.167969 31.816406 -34.203125 C 31.703125 -34.082031 31.542969 -33.867188 31.339844 -33.5625 L 23.339844 -21.734375 L 17.542969 -25.65625 L 17.542969 -32.65625 L 19.597656 -32.65625 L 19.597656 -25.65625 L 13.808594 -21.71875 L 5.734375 -33.601562 L 5.664062 -33.714844 C 5.527344 -33.929688 5.414062 -34.085938 5.324219 -34.183594 C 5.371094 -34.132812 5.464844 -34.066406 5.597656 -33.988281 C 5.816406 -33.859375 6.027344 -33.796875 6.226562 -33.796875 C 6.195312 -33.796875 6.167969 -33.796875 6.148438 -33.792969 L 6.15625 -33.796875 C 6.230469 -33.808594 6.320312 -33.828125 6.421875 -33.863281 C 6.824219 -33.996094 7.199219 -34.230469 7.546875 -34.558594 C 7.753906 -34.757812 7.929688 -35.003906 8.070312 -35.296875 C 8.210938 -35.59375 8.292969 -35.886719 8.320312 -36.179688 C 8.367188 -36.753906 8.234375 -37.265625 7.921875 -37.707031 L 21.0625 -18.792969 L 15.3125 -14.800781 L 8.761719 -12.332031 L 6.589844 -18.105469 L 13.140625 -20.570312 L 20.144531 -20.570312 L 20.144531 -4.914062 C 20.144531 -4.820312 20.148438 -4.746094 20.152344 -4.699219 C 20.148438 -4.734375 20.136719 -4.78125 20.113281 -4.847656 C 20 -5.183594 19.800781 -5.492188 19.515625 -5.785156 C 19.222656 -6.082031 18.902344 -6.292969 18.542969 -6.421875 C 18.449219 -6.457031 18.367188 -6.480469 18.300781 -6.488281 C 18.3125 -6.488281 18.34375 -6.488281 18.398438 -6.488281 Z M 18.398438 -6.488281 "/></g></g></g><g fill="#ffffff" fill-opacity="1"><g transform="translate(210.201153, 58.431718)"><g><path d="M 18.628906 7.628906 C 16.808594 7.628906 14.925781 7.507812 12.976562 7.261719 C 10.976562 7.007812 9.0625 6.625 7.242188 6.109375 C 5.359375 5.578125 3.644531 4.9375 2.09375 4.1875 C -0.34375 3.015625 -2.128906 1.320312 -3.261719 -0.898438 C -4.335938 -2.996094 -4.726562 -5.214844 -4.433594 -7.554688 C -4.164062 -9.707031 -3.386719 -11.636719 -2.097656 -13.339844 C -0.617188 -15.292969 1.3125 -16.605469 3.695312 -17.28125 C 6.203125 -17.988281 8.78125 -17.75 11.433594 -16.558594 C 12.46875 -16.070312 13.628906 -15.691406 14.914062 -15.425781 C 16.269531 -15.140625 17.507812 -15 18.628906 -15 C 19.445312 -15 20.082031 -15.042969 20.53125 -15.128906 C 20.589844 -15.140625 20.632812 -15.148438 20.667969 -15.15625 L 20.675781 -15.160156 C 20.664062 -15.15625 20.652344 -15.152344 20.636719 -15.148438 C 20.460938 -15.082031 20.265625 -14.980469 20.054688 -14.839844 C 19.6875 -14.601562 19.359375 -14.242188 19.070312 -13.761719 C 18.640625 -13.058594 18.425781 -12.300781 18.425781 -11.484375 C 18.425781 -10.820312 18.585938 -10.171875 18.902344 -9.539062 C 19.210938 -8.917969 19.628906 -8.410156 20.144531 -8.015625 C 20.300781 -7.898438 20.445312 -7.804688 20.574219 -7.742188 C 20.585938 -7.734375 20.59375 -7.730469 20.59375 -7.730469 C 20.566406 -7.742188 20.535156 -7.753906 20.496094 -7.769531 C 20.183594 -7.882812 19.742188 -8 19.171875 -8.121094 L 12.480469 -9.550781 C 7.40625 -10.609375 3.46875 -12.625 0.671875 -15.605469 C -0.882812 -17.253906 -2.046875 -19.144531 -2.820312 -21.273438 C -3.550781 -23.277344 -3.914062 -25.441406 -3.914062 -27.769531 C -3.914062 -30.863281 -3.253906 -33.71875 -1.933594 -36.328125 C -0.628906 -38.910156 1.203125 -41.09375 3.566406 -42.886719 C 5.738281 -44.539062 8.261719 -45.796875 11.140625 -46.671875 C 13.878906 -47.5 16.871094 -47.914062 20.113281 -47.914062 C 22.589844 -47.914062 25.089844 -47.640625 27.613281 -47.101562 C 30.390625 -46.503906 32.847656 -45.574219 34.984375 -44.3125 L 31.425781 -38.285156 L 34.664062 -44.492188 C 36.925781 -43.3125 38.582031 -41.617188 39.632812 -39.40625 C 40.5625 -37.457031 40.933594 -35.417969 40.742188 -33.292969 C 40.542969 -31.042969 39.75 -29.042969 38.367188 -27.300781 C 36.859375 -25.402344 34.898438 -24.15625 32.488281 -23.570312 C 30.136719 -22.992188 27.660156 -23.25 25.0625 -24.34375 L 24.984375 -24.375 L 24.90625 -24.410156 C 24.324219 -24.667969 23.625 -24.875 22.800781 -25.019531 C 21.816406 -25.195312 20.882812 -25.28125 20 -25.28125 C 19.332031 -25.28125 18.859375 -25.238281 18.574219 -25.144531 C 18.613281 -25.15625 18.683594 -25.195312 18.78125 -25.257812 C 19.035156 -25.414062 19.273438 -25.621094 19.492188 -25.882812 C 20.078125 -26.578125 20.371094 -27.378906 20.371094 -28.285156 C 20.371094 -28.972656 20.214844 -29.636719 19.898438 -30.273438 C 19.625 -30.828125 19.273438 -31.285156 18.835938 -31.648438 C 18.644531 -31.804688 18.464844 -31.929688 18.292969 -32.023438 C 18.261719 -32.039062 18.238281 -32.050781 18.222656 -32.058594 C 18.234375 -32.054688 18.253906 -32.046875 18.277344 -32.035156 C 18.558594 -31.929688 18.96875 -31.820312 19.511719 -31.703125 L 26.160156 -30.269531 C 31.199219 -29.179688 35.121094 -27.234375 37.921875 -24.433594 C 39.535156 -22.820312 40.75 -20.953125 41.5625 -18.835938 C 42.328125 -16.839844 42.714844 -14.675781 42.714844 -12.34375 C 42.714844 -9.257812 42.066406 -6.425781 40.773438 -3.839844 C 39.484375 -1.265625 37.664062 0.914062 35.308594 2.699219 C 33.136719 4.339844 30.589844 5.585938 27.667969 6.4375 C 24.933594 7.230469 21.921875 7.628906 18.628906 7.628906 Z M 18.628906 -6.371094 C 20.589844 -6.371094 22.300781 -6.585938 23.757812 -7.007812 C 25.027344 -7.378906 26.0625 -7.863281 26.859375 -8.46875 C 27.476562 -8.933594 27.9375 -9.480469 28.25 -10.101562 C 28.558594 -10.714844 28.710938 -11.464844 28.710938 -12.34375 C 28.710938 -12.945312 28.636719 -13.433594 28.492188 -13.816406 C 28.390625 -14.082031 28.230469 -14.320312 28.019531 -14.535156 C 27.671875 -14.878906 27.171875 -15.207031 26.519531 -15.519531 C 25.625 -15.945312 24.523438 -16.300781 23.210938 -16.582031 L 16.597656 -18.007812 C 13.6875 -18.628906 11.453125 -19.578125 9.902344 -20.863281 C 8.804688 -21.777344 7.949219 -22.847656 7.339844 -24.082031 C 6.695312 -25.394531 6.371094 -26.796875 6.371094 -28.285156 C 6.371094 -30.789062 7.175781 -33 8.792969 -34.914062 C 10.160156 -36.535156 11.972656 -37.714844 14.222656 -38.453125 C 15.921875 -39.007812 17.847656 -39.285156 20 -39.285156 C 21.707031 -39.285156 23.457031 -39.125 25.253906 -38.804688 C 27.210938 -38.457031 29.003906 -37.917969 30.632812 -37.1875 L 27.769531 -30.796875 L 30.476562 -37.253906 C 30.523438 -37.234375 30.558594 -37.222656 30.574219 -37.21875 C 30.53125 -37.230469 30.46875 -37.242188 30.390625 -37.253906 C 30.015625 -37.304688 29.605469 -37.277344 29.164062 -37.171875 C 28.46875 -37 27.882812 -36.613281 27.402344 -36.007812 C 27.046875 -35.5625 26.84375 -35.070312 26.796875 -34.53125 C 26.757812 -34.121094 26.824219 -33.738281 26.992188 -33.386719 C 27.28125 -32.777344 27.679688 -32.339844 28.1875 -32.078125 L 28.027344 -32.160156 L 27.871094 -32.253906 C 27.035156 -32.746094 25.96875 -33.132812 24.671875 -33.410156 C 23.117188 -33.742188 21.597656 -33.910156 20.113281 -33.910156 C 18.253906 -33.910156 16.613281 -33.695312 15.199219 -33.269531 C 13.925781 -32.882812 12.871094 -32.371094 12.035156 -31.738281 C 11.386719 -31.246094 10.894531 -30.667969 10.5625 -30.007812 C 10.246094 -29.382812 10.085938 -28.636719 10.085938 -27.769531 C 10.085938 -26.609375 10.347656 -25.75 10.871094 -25.195312 C 11.183594 -24.863281 11.636719 -24.550781 12.234375 -24.257812 C 13.070312 -23.847656 14.125 -23.511719 15.40625 -23.246094 L 22.085938 -21.820312 C 24.890625 -21.222656 27.0625 -20.34375 28.59375 -19.183594 C 29.816406 -18.257812 30.761719 -17.128906 31.425781 -15.800781 C 32.09375 -14.464844 32.429688 -13.023438 32.429688 -11.484375 C 32.429688 -9.679688 31.960938 -8.011719 31.027344 -6.476562 C 30.230469 -5.171875 29.148438 -4.066406 27.769531 -3.15625 C 26.484375 -2.308594 24.9375 -1.710938 23.136719 -1.371094 C 21.824219 -1.121094 20.320312 -1 18.628906 -1 C 16.546875 -1 14.355469 -1.238281 12.058594 -1.71875 C 9.683594 -2.210938 7.566406 -2.898438 5.707031 -3.78125 C 5.792969 -3.746094 5.933594 -3.710938 6.132812 -3.6875 C 6.574219 -3.632812 7.03125 -3.671875 7.503906 -3.804688 C 8.136719 -3.984375 8.65625 -4.34375 9.066406 -4.890625 C 9.289062 -5.179688 9.421875 -5.492188 9.460938 -5.816406 C 9.523438 -6.328125 9.4375 -6.8125 9.203125 -7.273438 C 9.027344 -7.621094 8.800781 -7.917969 8.535156 -8.160156 C 8.394531 -8.289062 8.28125 -8.375 8.191406 -8.417969 C 9.003906 -8.023438 9.953125 -7.675781 11.042969 -7.367188 C 12.191406 -7.042969 13.421875 -6.796875 14.734375 -6.632812 C 16.101562 -6.457031 17.398438 -6.371094 18.628906 -6.371094 Z M 18.628906 -6.371094 "/></g></g></g><g fill="#000000" fill-opacity="1"><g transform="translate(6.686226, 58.431718)"><g><path d="M 8.515625 0.515625 C 6.992188 0.515625 5.820312 0.0976562 5 -0.734375 C 4.175781 -1.578125 3.765625 -2.757812 3.765625 -4.28125 L 3.765625 -36 C 3.765625 -37.5625 4.203125 -38.75 5.078125 -39.5625 C 5.960938 -40.382812 7.203125 -40.796875 8.796875 -40.796875 C 10.128906 -40.796875 11.1875 -40.535156 11.96875 -40.015625 C 12.75 -39.503906 13.460938 -38.660156 14.109375 -37.484375 L 26.40625 -15.421875 L 24.40625 -15.421875 L 36.625 -37.484375 C 37.3125 -38.660156 38.046875 -39.503906 38.828125 -40.015625 C 39.609375 -40.535156 40.664062 -40.796875 42 -40.796875 C 43.519531 -40.796875 44.6875 -40.382812 45.5 -39.5625 C 46.320312 -38.75 46.734375 -37.5625 46.734375 -36 L 46.734375 -4.28125 C 46.734375 -2.757812 46.332031 -1.578125 45.53125 -0.734375 C 44.738281 0.0976562 43.5625 0.515625 42 0.515625 C 40.476562 0.515625 39.304688 0.0976562 38.484375 -0.734375 C 37.660156 -1.578125 37.25 -2.757812 37.25 -4.28125 L 37.25 -23.9375 L 38.453125 -23.9375 L 29.25 -7.9375 C 28.71875 -7.101562 28.15625 -6.472656 27.5625 -6.046875 C 26.976562 -5.628906 26.191406 -5.421875 25.203125 -5.421875 C 24.242188 -5.421875 23.457031 -5.628906 22.84375 -6.046875 C 22.238281 -6.472656 21.691406 -7.101562 21.203125 -7.9375 L 11.9375 -24 L 13.25 -24 L 13.25 -4.28125 C 13.25 -2.757812 12.847656 -1.578125 12.046875 -0.734375 C 11.253906 0.0976562 10.078125 0.515625 8.515625 0.515625 Z M 8.515625 0.515625 "/></g></g></g><g fill="#000000" fill-opacity="1"><g transform="translate(54.051479, 58.431718)"><g><path d="M 9.140625 0 C 7.347656 0 5.984375 -0.460938 5.046875 -1.390625 C 4.117188 -2.328125 3.65625 -3.671875 3.65625 -5.421875 L 3.65625 -34.859375 C 3.65625 -36.609375 4.117188 -37.945312 5.046875 -38.875 C 5.984375 -39.8125 7.347656 -40.28125 9.140625 -40.28125 L 28.515625 -40.28125 C 29.878906 -40.28125 30.90625 -39.9375 31.59375 -39.25 C 32.28125 -38.570312 32.625 -37.582031 32.625 -36.28125 C 32.625 -34.945312 32.28125 -33.925781 31.59375 -33.21875 C 30.90625 -32.519531 29.878906 -32.171875 28.515625 -32.171875 L 13.71875 -32.171875 L 13.71875 -24.515625 L 27.25 -24.515625 C 28.582031 -24.515625 29.601562 -24.171875 30.3125 -23.484375 C 31.019531 -22.796875 31.375 -21.785156 31.375 -20.453125 C 31.375 -19.117188 31.019531 -18.109375 30.3125 -17.421875 C 29.601562 -16.742188 28.582031 -16.40625 27.25 -16.40625 L 13.71875 -16.40625 L 13.71875 -8.109375 L 28.515625 -8.109375 C 29.878906 -8.109375 30.90625 -7.753906 31.59375 -7.046875 C 32.28125 -6.347656 32.625 -5.351562 32.625 -4.0625 C 32.625 -2.726562 32.28125 -1.71875 31.59375 -1.03125 C 30.90625 -0.34375 29.878906 0 28.515625 0 Z M 9.140625 0 "/></g></g></g><g fill="#000000" fill-opacity="1"><g transform="translate(85.98991, 58.431718)"><g><path d="M 9.140625 0 C 7.347656 0 5.984375 -0.460938 5.046875 -1.390625 C 4.117188 -2.328125 3.65625 -3.671875 3.65625 -5.421875 L 3.65625 -34.859375 C 3.65625 -36.609375 4.117188 -37.945312 5.046875 -38.875 C 5.984375 -39.8125 7.347656 -40.28125 9.140625 -40.28125 L 20.34375 -40.28125 C 27.351562 -40.28125 32.769531 -38.523438 36.59375 -35.015625 C 40.425781 -31.515625 42.34375 -26.566406 42.34375 -20.171875 C 42.34375 -16.972656 41.847656 -14.125 40.859375 -11.625 C 39.867188 -9.132812 38.4375 -7.019531 36.5625 -5.28125 C 34.695312 -3.550781 32.398438 -2.238281 29.671875 -1.34375 C 26.953125 -0.445312 23.84375 0 20.34375 0 Z M 14.171875 -8.515625 L 19.65625 -8.515625 C 21.675781 -8.515625 23.414062 -8.757812 24.875 -9.25 C 26.34375 -9.75 27.5625 -10.472656 28.53125 -11.421875 C 29.507812 -12.378906 30.234375 -13.582031 30.703125 -15.03125 C 31.179688 -16.476562 31.421875 -18.191406 31.421875 -20.171875 C 31.421875 -24.128906 30.445312 -27.050781 28.5 -28.9375 C 26.5625 -30.820312 23.613281 -31.765625 19.65625 -31.765625 L 14.171875 -31.765625 Z M 14.171875 -8.515625 "/></g></g></g><g fill="#000000" fill-opacity="1"><g transform="translate(127.755805, 58.431718)"><g><path d="M 8.90625 0.515625 C 7.238281 0.515625 5.945312 0.0507812 5.03125 -0.875 C 4.113281 -1.8125 3.65625 -3.140625 3.65625 -4.859375 L 3.65625 -35.421875 C 3.65625 -37.179688 4.113281 -38.515625 5.03125 -39.421875 C 5.945312 -40.335938 7.238281 -40.796875 8.90625 -40.796875 C 10.625 -40.796875 11.929688 -40.335938 12.828125 -39.421875 C 13.722656 -38.515625 14.171875 -37.179688 14.171875 -35.421875 L 14.171875 -4.859375 C 14.171875 -3.140625 13.734375 -1.8125 12.859375 -0.875 C 11.984375 0.0507812 10.664062 0.515625 8.90625 0.515625 Z M 8.90625 0.515625 "/></g></g></g><g fill="#000000" fill-opacity="1"><g transform="translate(142.439033, 58.431718)"><g><path d="M 18.625 0.625 C 17.101562 0.625 15.515625 0.519531 13.859375 0.3125 C 12.203125 0.101562 10.628906 -0.207031 9.140625 -0.625 C 7.648438 -1.039062 6.316406 -1.535156 5.140625 -2.109375 C 4.109375 -2.609375 3.382812 -3.265625 2.96875 -4.078125 C 2.550781 -4.898438 2.398438 -5.769531 2.515625 -6.6875 C 2.628906 -7.601562 2.953125 -8.410156 3.484375 -9.109375 C 4.015625 -9.816406 4.71875 -10.289062 5.59375 -10.53125 C 6.46875 -10.78125 7.460938 -10.660156 8.578125 -10.171875 C 10.023438 -9.484375 11.660156 -8.945312 13.484375 -8.5625 C 15.316406 -8.1875 17.03125 -8 18.625 -8 C 21.144531 -8 22.90625 -8.332031 23.90625 -9 C 24.914062 -9.664062 25.421875 -10.492188 25.421875 -11.484375 C 25.421875 -12.359375 25.066406 -13.0625 24.359375 -13.59375 C 23.660156 -14.132812 22.414062 -14.59375 20.625 -14.96875 L 13.9375 -16.40625 C 10.28125 -17.164062 7.554688 -18.492188 5.765625 -20.390625 C 3.972656 -22.296875 3.078125 -24.753906 3.078125 -27.765625 C 3.078125 -29.742188 3.488281 -31.539062 4.3125 -33.15625 C 5.132812 -34.78125 6.296875 -36.164062 7.796875 -37.3125 C 9.304688 -38.457031 11.097656 -39.34375 13.171875 -39.96875 C 15.242188 -40.59375 17.554688 -40.90625 20.109375 -40.90625 C 22.085938 -40.90625 24.097656 -40.6875 26.140625 -40.25 C 28.179688 -39.8125 29.941406 -39.15625 31.421875 -38.28125 C 32.296875 -37.820312 32.925781 -37.191406 33.3125 -36.390625 C 33.695312 -35.597656 33.847656 -34.769531 33.765625 -33.90625 C 33.691406 -33.050781 33.394531 -32.300781 32.875 -31.65625 C 32.363281 -31.007812 31.679688 -30.582031 30.828125 -30.375 C 29.972656 -30.164062 28.953125 -30.304688 27.765625 -30.796875 C 26.660156 -31.296875 25.410156 -31.664062 24.015625 -31.90625 C 22.628906 -32.15625 21.289062 -32.28125 20 -32.28125 C 18.59375 -32.28125 17.390625 -32.117188 16.390625 -31.796875 C 15.398438 -31.472656 14.648438 -31.003906 14.140625 -30.390625 C 13.628906 -29.785156 13.375 -29.082031 13.375 -28.28125 C 13.375 -27.476562 13.707031 -26.800781 14.375 -26.25 C 15.039062 -25.695312 16.269531 -25.234375 18.0625 -24.859375 L 24.6875 -23.421875 C 28.382812 -22.628906 31.144531 -21.316406 32.96875 -19.484375 C 34.800781 -17.660156 35.71875 -15.28125 35.71875 -12.34375 C 35.71875 -10.363281 35.316406 -8.570312 34.515625 -6.96875 C 33.710938 -5.375 32.566406 -4.015625 31.078125 -2.890625 C 29.597656 -1.765625 27.8125 -0.894531 25.71875 -0.28125 C 23.625 0.320312 21.257812 0.625 18.625 0.625 Z M 18.625 0.625 "/></g></g></g><g fill="#000000" fill-opacity="1"><g transform="translate(176.491508, 58.431718)"><g><path d="M 18.40625 0.515625 C 16.726562 0.515625 15.429688 0.0507812 14.515625 -0.875 C 13.597656 -1.8125 13.140625 -3.160156 13.140625 -4.921875 L 13.140625 -20.578125 L 15.3125 -14.796875 L 2.171875 -33.71875 C 1.523438 -34.625 1.25 -35.640625 1.34375 -36.765625 C 1.4375 -37.890625 1.890625 -38.84375 2.703125 -39.625 C 3.523438 -40.40625 4.703125 -40.796875 6.234375 -40.796875 C 7.296875 -40.796875 8.265625 -40.535156 9.140625 -40.015625 C 10.015625 -39.503906 10.832031 -38.640625 11.59375 -37.421875 L 19.59375 -25.65625 L 17.546875 -25.65625 L 25.546875 -37.484375 C 26.335938 -38.703125 27.148438 -39.554688 27.984375 -40.046875 C 28.828125 -40.546875 29.820312 -40.796875 30.96875 -40.796875 C 32.414062 -40.796875 33.539062 -40.429688 34.34375 -39.703125 C 35.144531 -38.984375 35.570312 -38.070312 35.625 -36.96875 C 35.6875 -35.863281 35.332031 -34.738281 34.5625 -33.59375 L 21.546875 -14.796875 L 23.65625 -20.578125 L 23.65625 -4.921875 C 23.65625 -1.296875 21.90625 0.515625 18.40625 0.515625 Z M 18.40625 0.515625 "/></g></g></g><g fill="#000000" fill-opacity="1"><g transform="translate(210.201153, 58.431718)"><g><path d="M 18.625 0.625 C 17.101562 0.625 15.515625 0.519531 13.859375 0.3125 C 12.203125 0.101562 10.628906 -0.207031 9.140625 -0.625 C 7.648438 -1.039062 6.316406 -1.535156 5.140625 -2.109375 C 4.109375 -2.609375 3.382812 -3.265625 2.96875 -4.078125 C 2.550781 -4.898438 2.398438 -5.769531 2.515625 -6.6875 C 2.628906 -7.601562 2.953125 -8.410156 3.484375 -9.109375 C 4.015625 -9.816406 4.71875 -10.289062 5.59375 -10.53125 C 6.46875 -10.78125 7.460938 -10.660156 8.578125 -10.171875 C 10.023438 -9.484375 11.660156 -8.945312 13.484375 -8.5625 C 15.316406 -8.1875 17.03125 -8 18.625 -8 C 21.144531 -8 22.90625 -8.332031 23.90625 -9 C 24.914062 -9.664062 25.421875 -10.492188 25.421875 -11.484375 C 25.421875 -12.359375 25.066406 -13.0625 24.359375 -13.59375 C 23.660156 -14.132812 22.414062 -14.59375 20.625 -14.96875 L 13.9375 -16.40625 C 10.28125 -17.164062 7.554688 -18.492188 5.765625 -20.390625 C 3.972656 -22.296875 3.078125 -24.753906 3.078125 -27.765625 C 3.078125 -29.742188 3.488281 -31.539062 4.3125 -33.15625 C 5.132812 -34.78125 6.296875 -36.164062 7.796875 -37.3125 C 9.304688 -38.457031 11.097656 -39.34375 13.171875 -39.96875 C 15.242188 -40.59375 17.554688 -40.90625 20.109375 -40.90625 C 22.085938 -40.90625 24.097656 -40.6875 26.140625 -40.25 C 28.179688 -39.8125 29.941406 -39.15625 31.421875 -38.28125 C 32.296875 -37.820312 32.925781 -37.191406 33.3125 -36.390625 C 33.695312 -35.597656 33.847656 -34.769531 33.765625 -33.90625 C 33.691406 -33.050781 33.394531 -32.300781 32.875 -31.65625 C 32.363281 -31.007812 31.679688 -30.582031 30.828125 -30.375 C 29.972656 -30.164062 28.953125 -30.304688 27.765625 -30.796875 C 26.660156 -31.296875 25.410156 -31.664062 24.015625 -31.90625 C 22.628906 -32.15625 21.289062 -32.28125 20 -32.28125 C 18.59375 -32.28125 17.390625 -32.117188 16.390625 -31.796875 C 15.398438 -31.472656 14.648438 -31.003906 14.140625 -30.390625 C 13.628906 -29.785156 13.375 -29.082031 13.375 -28.28125 C 13.375 -27.476562 13.707031 -26.800781 14.375 -26.25 C 15.039062 -25.695312 16.269531 -25.234375 18.0625 -24.859375 L 24.6875 -23.421875 C 28.382812 -22.628906 31.144531 -21.316406 32.96875 -19.484375 C 34.800781 -17.660156 35.71875 -15.28125 35.71875 -12.34375 C 35.71875 -10.363281 35.316406 -8.570312 34.515625 -6.96875 C 33.710938 -5.375 32.566406 -4.015625 31.078125 -2.890625 C 29.597656 -1.765625 27.8125 -0.894531 25.71875 -0.28125 C 23.625 0.320312 21.257812 0.625 18.625 0.625 Z M 18.625 0.625 "/></g></g></g></g></g></svg>