<svg xmlns="http://www.w3.org/2000/svg" xmlns:xlink="http://www.w3.org/1999/xlink" width="500" zoomAndPan="magnify" viewBox="0 0 375 374.999991" height="500" preserveAspectRatio="xMidYMid meet" version="1.0"><defs><g/><clipPath id="7bd49ea4a4"><path d="M 167 40 L 343 40 L 343 319.570312 L 167 319.570312 Z M 167 40 " clip-rule="nonzero"/></clipPath><clipPath id="6db8927cad"><rect x="0" width="321" y="0" height="100"/></clipPath></defs><g clip-path="url(#7bd49ea4a4)"><path fill="#44bae9" d="M 200.75 46.808594 C 209.292969 46.808594 220.914062 44.132812 230.804688 43.613281 C 261.242188 41.980469 292.460938 47.234375 310.304688 70.996094 C 333.285156 101.621094 322.066406 150.585938 305.214844 181.613281 C 286.777344 215.554688 265.714844 235.789062 237.929688 256.617188 C 230.6875 262.035156 227.28125 266.035156 220.84375 266.863281 C 215.234375 261.207031 207.445312 257.703125 198.855469 257.703125 C 181.746094 257.703125 167.875 271.574219 167.875 288.683594 C 167.875 305.796875 181.746094 319.664062 198.855469 319.664062 C 215.847656 319.664062 229.648438 305.960938 229.8125 288.992188 C 231.46875 288.023438 233.71875 286.742188 236.9375 284.851562 C 244.769531 280.257812 252.25 275.714844 258.613281 270.957031 L 278.140625 254.910156 C 332.21875 208.996094 371.222656 114.070312 313.78125 61.125 C 274.402344 24.820312 214.214844 46.453125 200.75 46.808594 Z M 200.75 46.808594 " fill-opacity="1" fill-rule="evenodd"/></g><path fill="#44bae9" d="M 187.804688 251.976562 C 172.347656 242.746094 164.347656 242.460938 143.355469 226.488281 C 97.300781 191.507812 70.910156 129.261719 107.050781 82.519531 C 134.8125 46.59375 196.75 70.710938 208.226562 85.410156 C 209.910156 87.585938 210.996094 90.164062 211.777344 92.980469 C 210.523438 96.34375 209.835938 99.964844 209.835938 103.75 C 209.835938 120.863281 223.707031 134.730469 240.816406 134.730469 C 257.929688 134.730469 271.796875 120.863281 271.796875 103.75 C 271.796875 86.640625 257.929688 72.769531 240.816406 72.769531 C 238.070312 72.769531 235.398438 73.125 232.867188 73.8125 C 230.425781 72.652344 227.210938 70.925781 222.734375 68.320312 C 207.445312 59.421875 192.558594 51.019531 172.089844 47.800781 C 148.65625 44.109375 132.019531 46.785156 114.199219 56.652344 C 46.820312 94.070312 66.960938 170.183594 117.253906 215.789062 C 131.734375 228.949219 169.792969 248.285156 187.804688 251.976562 Z M 187.804688 251.976562 " fill-opacity="1" fill-rule="evenodd"/><path fill="#44bae9" d="M 152.066406 128.246094 C 118.152344 128.246094 124.421875 121.214844 124.660156 156.195312 L 152.042969 156.789062 L 152.066406 184.171875 L 180.515625 184.125 L 180.515625 157.261719 L 207.875 156.667969 L 207.945312 128.339844 L 180.796875 128.199219 L 180.492188 100.863281 L 152.066406 100.863281 Z M 152.066406 128.246094 " fill-opacity="1" fill-rule="evenodd"/><g transform="matrix(1, 0, 0, 1, 7, 159)"><g clip-path="url(#6db8927cad)"><g fill="#ffffff" fill-opacity="1"><g transform="translate(7.91608, 73.813165)"><g><path d="M 10.742188 9.480469 C 8.757812 9.480469 6.917969 9.179688 5.214844 8.570312 C 3.199219 7.847656 1.457031 6.738281 -0.0078125 5.238281 C -1.445312 3.765625 -2.511719 2.035156 -3.199219 0.046875 C -3.785156 -1.636719 -4.074219 -3.453125 -4.074219 -5.40625 L -4.074219 -45.417969 C -4.074219 -47.453125 -3.753906 -49.339844 -3.117188 -51.074219 C -2.359375 -53.136719 -1.191406 -54.90625 0.382812 -56.378906 C 1.882812 -57.777344 3.632812 -58.808594 5.644531 -59.472656 C 7.324219 -60.03125 9.144531 -60.308594 11.101562 -60.308594 C 14.550781 -60.308594 17.503906 -59.5 19.960938 -57.878906 C 22.167969 -56.425781 24.03125 -54.3125 25.550781 -51.542969 L 48.339844 -10.632812 L 15.785156 -10.632812 L 38.488281 -51.578125 C 40.105469 -54.367188 41.988281 -56.46875 44.128906 -57.878906 C 46.589844 -59.5 49.542969 -60.308594 52.988281 -60.308594 C 54.949219 -60.308594 56.773438 -60.015625 58.453125 -59.425781 C 60.464844 -58.722656 62.203125 -57.640625 63.667969 -56.171875 C 65.148438 -54.691406 66.238281 -52.933594 66.9375 -50.898438 C 67.515625 -49.214844 67.808594 -47.390625 67.808594 -45.417969 L 67.808594 -5.40625 C 67.808594 -3.476562 67.523438 -1.679688 66.960938 -0.015625 C 66.289062 1.964844 65.253906 3.691406 63.847656 5.160156 C 62.375 6.707031 60.605469 7.84375 58.539062 8.578125 C 56.839844 9.179688 54.988281 9.480469 52.988281 9.480469 C 51.007812 9.480469 49.164062 9.179688 47.464844 8.570312 C 45.445312 7.847656 43.703125 6.738281 42.238281 5.238281 C 40.800781 3.765625 39.738281 2.035156 39.046875 0.046875 C 38.464844 -1.636719 38.171875 -3.453125 38.171875 -5.40625 L 38.171875 -39.039062 L 63.789062 -39.039062 L 44.472656 -5.445312 L 44.363281 -5.277344 C 43.074219 -3.25 41.582031 -1.632812 39.898438 -0.4375 C 37.621094 1.175781 34.921875 1.984375 31.792969 1.984375 C 28.761719 1.984375 26.109375 1.203125 23.832031 -0.363281 C 21.992188 -1.628906 20.429688 -3.351562 19.140625 -5.527344 L -0.222656 -39.113281 L 25.558594 -39.113281 L 25.558594 -5.40625 C 25.558594 -3.476562 25.277344 -1.679688 24.714844 -0.015625 C 24.042969 1.964844 23.007812 3.691406 21.601562 5.160156 C 20.128906 6.707031 18.359375 7.84375 16.292969 8.578125 C 14.589844 9.179688 12.742188 9.480469 10.742188 9.480469 Z M 10.742188 -8.183594 C 10.777344 -8.183594 10.808594 -8.183594 10.828125 -8.1875 C 10.824219 -8.1875 10.8125 -8.183594 10.796875 -8.183594 C 10.675781 -8.164062 10.539062 -8.128906 10.382812 -8.074219 C 9.804688 -7.867188 9.285156 -7.523438 8.820312 -7.035156 C 8.425781 -6.621094 8.148438 -6.171875 7.980469 -5.679688 C 7.9375 -5.550781 7.90625 -5.4375 7.894531 -5.339844 C 7.890625 -5.328125 7.890625 -5.320312 7.890625 -5.320312 C 7.890625 -5.34375 7.890625 -5.371094 7.890625 -5.40625 L 7.890625 -30.28125 L 16.726562 -30.28125 L 16.726562 -21.445312 L 15.066406 -21.445312 L 15.066406 -30.28125 L 22.71875 -34.691406 L 34.351562 -14.515625 C 34.378906 -14.46875 34.398438 -14.4375 34.417969 -14.410156 C 34.410156 -14.421875 34.394531 -14.441406 34.375 -14.464844 C 34.238281 -14.617188 34.0625 -14.769531 33.84375 -14.921875 C 33.394531 -15.230469 32.925781 -15.449219 32.441406 -15.578125 C 32.183594 -15.648438 31.96875 -15.683594 31.792969 -15.683594 C 31.652344 -15.683594 31.457031 -15.648438 31.214844 -15.585938 C 30.683594 -15.445312 30.171875 -15.199219 29.671875 -14.847656 C 29.503906 -14.726562 29.378906 -14.617188 29.289062 -14.519531 C 29.324219 -14.558594 29.382812 -14.640625 29.460938 -14.761719 L 36.914062 -10.019531 L 29.253906 -14.425781 L 40.863281 -34.609375 L 48.519531 -30.207031 L 48.519531 -21.375 L 47.003906 -21.375 L 47.003906 -30.207031 L 55.839844 -30.207031 L 55.839844 -5.40625 C 55.839844 -5.375 55.839844 -5.351562 55.839844 -5.332031 C 55.839844 -5.339844 55.839844 -5.351562 55.835938 -5.367188 C 55.820312 -5.476562 55.789062 -5.601562 55.738281 -5.742188 C 55.566406 -6.242188 55.277344 -6.699219 54.875 -7.109375 C 54.441406 -7.554688 53.953125 -7.871094 53.414062 -8.066406 C 53.257812 -8.121094 53.117188 -8.160156 52.988281 -8.179688 L 52.988281 -8.183594 C 53.027344 -8.183594 53.054688 -8.183594 53.078125 -8.1875 C 53.070312 -8.1875 53.0625 -8.183594 53.042969 -8.183594 C 52.921875 -8.164062 52.785156 -8.128906 52.632812 -8.074219 C 52.054688 -7.867188 51.535156 -7.523438 51.070312 -7.035156 C 50.675781 -6.621094 50.394531 -6.171875 50.226562 -5.679688 C 50.183594 -5.550781 50.15625 -5.4375 50.140625 -5.339844 C 50.136719 -5.328125 50.136719 -5.320312 50.136719 -5.320312 C 50.140625 -5.34375 50.140625 -5.371094 50.140625 -5.40625 L 50.140625 -45.417969 C 50.140625 -45.460938 50.140625 -45.496094 50.136719 -45.523438 L 50.140625 -45.507812 C 50.15625 -45.40625 50.1875 -45.289062 50.234375 -45.152344 C 50.417969 -44.613281 50.730469 -44.125 51.175781 -43.679688 C 51.613281 -43.246094 52.09375 -42.933594 52.625 -42.75 C 52.773438 -42.699219 52.90625 -42.664062 53.019531 -42.644531 C 53.039062 -42.640625 53.054688 -42.640625 53.0625 -42.640625 C 53.042969 -42.640625 53.019531 -42.640625 52.988281 -42.640625 C 52.882812 -42.640625 52.800781 -42.636719 52.738281 -42.632812 L 52.734375 -42.632812 C 52.757812 -42.636719 52.785156 -42.640625 52.816406 -42.648438 C 53.140625 -42.726562 53.484375 -42.886719 53.847656 -43.125 C 54.035156 -43.25 54.164062 -43.351562 54.234375 -43.433594 C 54.132812 -43.316406 54.035156 -43.175781 53.9375 -43.011719 L 38.511719 -15.183594 L 30.785156 -19.464844 L 30.785156 -28.300781 L 33.308594 -28.300781 L 33.308594 -19.464844 L 25.589844 -15.167969 L 10.0625 -43.046875 C 9.9375 -43.277344 9.835938 -43.433594 9.765625 -43.519531 C 9.863281 -43.402344 10.023438 -43.269531 10.246094 -43.125 C 10.605469 -42.886719 10.949219 -42.726562 11.277344 -42.648438 C 11.308594 -42.640625 11.335938 -42.636719 11.355469 -42.632812 C 11.292969 -42.636719 11.207031 -42.640625 11.101562 -42.640625 C 11.019531 -42.640625 10.964844 -42.640625 10.9375 -42.636719 C 11.003906 -42.644531 11.085938 -42.667969 11.191406 -42.703125 C 11.636719 -42.847656 12.058594 -43.105469 12.449219 -43.472656 C 12.917969 -43.910156 13.257812 -44.410156 13.460938 -44.972656 C 13.523438 -45.136719 13.5625 -45.285156 13.585938 -45.421875 L 13.589844 -45.417969 L 13.589844 -5.40625 C 13.589844 -5.375 13.59375 -5.351562 13.59375 -5.332031 C 13.59375 -5.339844 13.589844 -5.351562 13.589844 -5.367188 C 13.574219 -5.476562 13.539062 -5.601562 13.492188 -5.742188 C 13.320312 -6.242188 13.03125 -6.699219 12.625 -7.109375 C 12.191406 -7.554688 11.707031 -7.871094 11.167969 -8.066406 C 11.011719 -8.121094 10.867188 -8.160156 10.742188 -8.179688 Z M 10.742188 -8.183594 "/></g></g></g><g fill="#ffffff" fill-opacity="1"><g transform="translate(67.677868, 73.813165)"><g><path d="M 11.535156 8.832031 C 9.425781 8.832031 7.476562 8.527344 5.6875 7.914062 C 3.539062 7.179688 1.6875 6.035156 0.132812 4.480469 C -1.410156 2.9375 -2.550781 1.101562 -3.289062 -1.019531 C -3.910156 -2.804688 -4.21875 -4.75 -4.21875 -6.847656 L -4.21875 -43.976562 C -4.21875 -46.078125 -3.910156 -48.019531 -3.289062 -49.804688 C -2.550781 -51.929688 -1.410156 -53.761719 0.132812 -55.304688 C 1.6875 -56.859375 3.539062 -58.003906 5.6875 -58.742188 C 7.476562 -59.355469 9.425781 -59.660156 11.535156 -59.660156 L 35.976562 -59.660156 C 37.796875 -59.660156 39.484375 -59.402344 41.039062 -58.882812 C 43.007812 -58.226562 44.699219 -57.191406 46.113281 -55.773438 C 47.503906 -54.382812 48.53125 -52.738281 49.1875 -50.832031 C 49.730469 -49.273438 50 -47.585938 50 -45.78125 C 50 -43.976562 49.738281 -42.292969 49.214844 -40.738281 C 48.570312 -38.824219 47.566406 -37.167969 46.199219 -35.761719 C 44.785156 -34.308594 43.089844 -33.246094 41.109375 -32.566406 C 39.53125 -32.027344 37.820312 -31.753906 35.976562 -31.753906 L 17.300781 -31.753906 L 17.300781 -40.589844 L 26.136719 -40.589844 L 26.136719 -30.929688 L 17.300781 -30.929688 L 17.300781 -39.761719 L 34.390625 -39.761719 C 36.195312 -39.761719 37.875 -39.5 39.433594 -38.976562 C 41.34375 -38.332031 43 -37.328125 44.40625 -35.960938 C 45.847656 -34.5625 46.90625 -32.886719 47.585938 -30.9375 C 48.136719 -29.359375 48.414062 -27.648438 48.414062 -25.808594 C 48.414062 -23.96875 48.136719 -22.261719 47.585938 -20.683594 C 46.90625 -18.734375 45.847656 -17.058594 44.40625 -15.65625 C 43 -14.292969 41.34375 -13.285156 39.433594 -12.644531 C 37.875 -12.121094 36.195312 -11.859375 34.390625 -11.859375 L 17.300781 -11.859375 L 17.300781 -20.691406 L 26.136719 -20.691406 L 26.136719 -10.238281 L 17.300781 -10.238281 L 17.300781 -19.070312 L 35.976562 -19.070312 C 37.820312 -19.070312 39.53125 -18.800781 41.109375 -18.261719 C 43.089844 -17.582031 44.785156 -16.515625 46.199219 -15.0625 C 47.554688 -13.671875 48.550781 -12.035156 49.199219 -10.15625 C 49.730469 -8.597656 50 -6.917969 50 -5.117188 C 50 -3.304688 49.734375 -1.617188 49.207031 -0.0625 C 48.546875 1.875 47.515625 3.546875 46.113281 4.949219 C 44.699219 6.363281 43.007812 7.398438 41.039062 8.054688 C 39.484375 8.574219 37.796875 8.832031 35.976562 8.832031 Z M 11.535156 -8.832031 L 35.976562 -8.832031 C 35.996094 -8.832031 36.007812 -8.832031 36.015625 -8.835938 C 35.996094 -8.832031 35.972656 -8.828125 35.941406 -8.824219 C 35.796875 -8.804688 35.632812 -8.765625 35.453125 -8.703125 C 34.78125 -8.480469 34.171875 -8.09375 33.621094 -7.542969 C 33.085938 -7.003906 32.703125 -6.40625 32.476562 -5.742188 C 32.378906 -5.457031 32.332031 -5.25 32.332031 -5.117188 C 32.332031 -4.953125 32.382812 -4.722656 32.484375 -4.425781 C 32.699219 -3.808594 33.046875 -3.246094 33.539062 -2.742188 C 34.085938 -2.179688 34.699219 -1.78125 35.382812 -1.546875 C 35.664062 -1.453125 35.859375 -1.402344 35.976562 -1.402344 L 8.46875 -1.402344 L 8.46875 -29.523438 L 34.390625 -29.523438 C 34.265625 -29.523438 34.070312 -29.480469 33.796875 -29.386719 C 33.171875 -29.175781 32.601562 -28.820312 32.085938 -28.320312 C 31.535156 -27.785156 31.140625 -27.179688 30.90625 -26.503906 C 30.800781 -26.199219 30.746094 -25.96875 30.746094 -25.808594 C 30.746094 -25.652344 30.800781 -25.421875 30.90625 -25.117188 C 31.140625 -24.441406 31.535156 -23.835938 32.085938 -23.300781 C 32.601562 -22.796875 33.171875 -22.441406 33.796875 -22.230469 C 34.070312 -22.140625 34.265625 -22.09375 34.390625 -22.09375 L 8.46875 -22.09375 L 8.46875 -49.421875 L 35.976562 -49.421875 C 35.859375 -49.421875 35.664062 -49.375 35.382812 -49.277344 C 34.699219 -49.046875 34.085938 -48.648438 33.539062 -48.082031 C 33.035156 -47.566406 32.679688 -46.996094 32.46875 -46.371094 C 32.378906 -46.101562 32.332031 -45.902344 32.332031 -45.78125 C 32.332031 -45.605469 32.386719 -45.363281 32.492188 -45.054688 C 32.722656 -44.398438 33.097656 -43.808594 33.621094 -43.28125 C 34.171875 -42.730469 34.78125 -42.34375 35.453125 -42.121094 C 35.632812 -42.0625 35.796875 -42.023438 35.941406 -42 C 35.972656 -41.996094 35.996094 -41.992188 36.015625 -41.992188 C 36.007812 -41.992188 35.996094 -41.992188 35.976562 -41.992188 L 11.535156 -41.992188 C 11.402344 -41.992188 11.304688 -41.988281 11.234375 -41.976562 C 11.273438 -41.984375 11.332031 -42 11.414062 -42.027344 C 11.847656 -42.175781 12.25 -42.4375 12.625 -42.8125 C 12.992188 -43.179688 13.25 -43.578125 13.398438 -44.007812 C 13.429688 -44.097656 13.453125 -44.171875 13.460938 -44.222656 C 13.453125 -44.171875 13.449219 -44.089844 13.449219 -43.976562 L 13.449219 -6.847656 C 13.449219 -6.738281 13.453125 -6.65625 13.460938 -6.605469 C 13.453125 -6.65625 13.429688 -6.726562 13.398438 -6.820312 C 13.25 -7.25 12.992188 -7.644531 12.625 -8.011719 C 12.25 -8.386719 11.847656 -8.648438 11.414062 -8.796875 C 11.332031 -8.824219 11.273438 -8.84375 11.234375 -8.847656 C 11.304688 -8.839844 11.402344 -8.832031 11.535156 -8.832031 Z M 11.535156 -8.832031 "/></g></g></g><g fill="#ffffff" fill-opacity="1"><g transform="translate(107.975295, 73.813165)"><g><path d="M 11.535156 8.832031 C 9.425781 8.832031 7.476562 8.527344 5.6875 7.914062 C 3.539062 7.179688 1.6875 6.035156 0.132812 4.480469 C -1.410156 2.9375 -2.550781 1.101562 -3.289062 -1.019531 C -3.910156 -2.804688 -4.21875 -4.75 -4.21875 -6.847656 L -4.21875 -43.976562 C -4.21875 -46.078125 -3.910156 -48.019531 -3.289062 -49.804688 C -2.550781 -51.929688 -1.410156 -53.761719 0.132812 -55.304688 C 1.6875 -56.859375 3.539062 -58.003906 5.6875 -58.742188 C 7.476562 -59.355469 9.425781 -59.660156 11.535156 -59.660156 L 25.664062 -59.660156 C 36.796875 -59.660156 45.621094 -56.675781 52.140625 -50.710938 C 55.574219 -47.566406 58.144531 -43.789062 59.851562 -39.375 C 61.453125 -35.226562 62.253906 -30.585938 62.253906 -25.449219 C 62.253906 -20.285156 61.421875 -15.605469 59.757812 -11.414062 C 58.015625 -7.027344 55.480469 -3.289062 52.152344 -0.195312 C 48.851562 2.867188 44.871094 5.164062 40.210938 6.699219 C 35.878906 8.121094 31.03125 8.832031 25.664062 8.832031 Z M 11.535156 -8.832031 L 25.664062 -8.832031 C 29.144531 -8.832031 32.152344 -9.25 34.695312 -10.085938 C 36.90625 -10.8125 38.71875 -11.832031 40.128906 -13.140625 C 41.507812 -14.421875 42.578125 -16.019531 43.335938 -17.929688 C 44.171875 -20.03125 44.589844 -22.539062 44.589844 -25.449219 C 44.589844 -28.386719 44.183594 -30.90625 43.371094 -33.007812 C 42.660156 -34.84375 41.609375 -36.398438 40.210938 -37.679688 C 37.070312 -40.554688 32.222656 -41.992188 25.664062 -41.992188 L 11.535156 -41.992188 C 11.402344 -41.992188 11.304688 -41.988281 11.234375 -41.976562 C 11.273438 -41.984375 11.332031 -42 11.414062 -42.027344 C 11.847656 -42.175781 12.25 -42.4375 12.625 -42.8125 C 12.992188 -43.179688 13.25 -43.578125 13.398438 -44.007812 C 13.429688 -44.097656 13.453125 -44.171875 13.460938 -44.222656 C 13.453125 -44.171875 13.449219 -44.089844 13.449219 -43.976562 L 13.449219 -6.847656 C 13.449219 -6.738281 13.453125 -6.65625 13.460938 -6.605469 C 13.453125 -6.65625 13.429688 -6.726562 13.398438 -6.820312 C 13.25 -7.25 12.992188 -7.644531 12.625 -8.011719 C 12.25 -8.386719 11.847656 -8.648438 11.414062 -8.796875 C 11.332031 -8.824219 11.273438 -8.84375 11.234375 -8.847656 C 11.304688 -8.839844 11.402344 -8.832031 11.535156 -8.832031 Z M 17.878906 -19.574219 L 24.800781 -19.574219 C 26.378906 -19.574219 27.636719 -19.734375 28.570312 -20.046875 C 29.144531 -20.242188 29.5625 -20.46875 29.828125 -20.726562 C 30.027344 -20.925781 30.207031 -21.257812 30.359375 -21.722656 C 30.664062 -22.652344 30.820312 -23.894531 30.820312 -25.449219 C 30.820312 -26.996094 30.664062 -28.238281 30.351562 -29.179688 C 30.191406 -29.65625 30.015625 -29.992188 29.824219 -30.175781 C 29.589844 -30.402344 29.199219 -30.605469 28.65625 -30.777344 C 27.667969 -31.09375 26.382812 -31.25 24.800781 -31.25 L 17.878906 -31.25 L 17.878906 -40.085938 L 26.710938 -40.085938 L 26.710938 -10.742188 L 17.878906 -10.742188 Z M 9.046875 -1.910156 L 9.046875 -48.917969 L 24.800781 -48.917969 C 32.1875 -48.917969 37.960938 -46.898438 42.128906 -42.855469 C 46.367188 -38.742188 48.484375 -32.9375 48.484375 -25.449219 C 48.484375 -22.007812 48.039062 -18.921875 47.140625 -16.199219 C 46.09375 -13.011719 44.445312 -10.316406 42.195312 -8.109375 C 40.007812 -5.964844 37.351562 -4.367188 34.222656 -3.308594 C 31.457031 -2.375 28.316406 -1.910156 24.800781 -1.910156 Z M 9.046875 -1.910156 "/></g></g></g><g fill="#ffffff" fill-opacity="1"><g transform="translate(160.67225, 73.813165)"><g><path d="M 11.246094 9.480469 C 9.160156 9.480469 7.226562 9.160156 5.441406 8.519531 C 3.355469 7.765625 1.554688 6.617188 0.0351562 5.0625 C -1.46875 3.527344 -2.582031 1.71875 -3.304688 -0.371094 C -3.914062 -2.140625 -4.21875 -4.058594 -4.21875 -6.128906 L -4.21875 -44.699219 C -4.21875 -46.785156 -3.914062 -48.714844 -3.308594 -50.484375 C -2.578125 -52.613281 -1.441406 -54.449219 0.0976562 -55.992188 C 1.621094 -57.511719 3.417969 -58.640625 5.496094 -59.371094 C 7.261719 -59.996094 9.179688 -60.308594 11.246094 -60.308594 C 13.328125 -60.308594 15.253906 -60 17.023438 -59.378906 C 19.144531 -58.636719 20.96875 -57.484375 22.496094 -55.925781 C 24.007812 -54.382812 25.117188 -52.550781 25.828125 -50.429688 C 26.417969 -48.675781 26.710938 -46.765625 26.710938 -44.699219 L 26.710938 -6.128906 C 26.710938 -1.632812 25.363281 2.050781 22.660156 4.929688 C 21.132812 6.558594 19.277344 7.757812 17.105469 8.53125 C 15.320312 9.164062 13.367188 9.480469 11.246094 9.480469 Z M 11.246094 -8.183594 C 11.355469 -8.183594 11.429688 -8.1875 11.472656 -8.195312 C 11.402344 -8.183594 11.308594 -8.15625 11.191406 -8.117188 C 10.675781 -7.933594 10.207031 -7.617188 9.78125 -7.164062 C 9.445312 -6.804688 9.210938 -6.425781 9.078125 -6.027344 C 9.054688 -5.953125 9.039062 -5.894531 9.03125 -5.859375 C 9.042969 -5.921875 9.046875 -6.007812 9.046875 -6.128906 L 9.046875 -44.699219 C 9.046875 -44.828125 9.042969 -44.921875 9.03125 -44.988281 C 9.039062 -44.949219 9.054688 -44.890625 9.082031 -44.808594 C 9.230469 -44.367188 9.492188 -43.953125 9.875 -43.566406 C 10.269531 -43.160156 10.707031 -42.871094 11.183594 -42.707031 C 11.292969 -42.667969 11.378906 -42.644531 11.449219 -42.632812 C 11.410156 -42.640625 11.34375 -42.640625 11.246094 -42.640625 C 11.167969 -42.640625 11.117188 -42.640625 11.09375 -42.636719 C 11.171875 -42.648438 11.265625 -42.671875 11.375 -42.714844 C 11.816406 -42.871094 12.222656 -43.132812 12.589844 -43.5 C 12.976562 -43.886719 13.25 -44.304688 13.402344 -44.753906 C 13.433594 -44.84375 13.453125 -44.914062 13.460938 -44.964844 C 13.453125 -44.90625 13.449219 -44.816406 13.449219 -44.699219 L 13.449219 -6.128906 C 13.449219 -6.027344 13.449219 -5.957031 13.457031 -5.914062 C 13.449219 -5.96875 13.429688 -6.042969 13.394531 -6.136719 C 13.253906 -6.554688 13.003906 -6.941406 12.65625 -7.300781 C 12.289062 -7.671875 11.878906 -7.941406 11.429688 -8.101562 C 11.308594 -8.144531 11.207031 -8.175781 11.121094 -8.1875 C 11.136719 -8.1875 11.175781 -8.183594 11.246094 -8.183594 Z M 11.246094 -8.183594 "/></g></g></g><g fill="#ffffff" fill-opacity="1"><g transform="translate(179.198404, 73.813165)"><g><path d="M 23.503906 9.625 C 21.210938 9.625 18.832031 9.472656 16.375 9.160156 C 13.847656 8.839844 11.433594 8.355469 9.136719 7.707031 C 6.761719 7.039062 4.597656 6.230469 2.640625 5.285156 C -0.433594 3.804688 -2.683594 1.667969 -4.113281 -1.132812 C -5.46875 -3.777344 -5.960938 -6.578125 -5.59375 -9.53125 C -5.253906 -12.25 -4.269531 -14.683594 -2.644531 -16.828125 C -0.78125 -19.292969 1.65625 -20.953125 4.664062 -21.800781 C 7.828125 -22.695312 11.082031 -22.394531 14.425781 -20.894531 C 15.730469 -20.277344 17.195312 -19.800781 18.816406 -19.460938 C 20.527344 -19.105469 22.089844 -18.925781 23.503906 -18.925781 C 24.535156 -18.925781 25.339844 -18.980469 25.90625 -19.089844 C 25.976562 -19.101562 26.035156 -19.113281 26.078125 -19.125 L 26.085938 -19.128906 C 26.074219 -19.125 26.058594 -19.117188 26.039062 -19.113281 C 25.816406 -19.03125 25.570312 -18.902344 25.304688 -18.726562 C 24.839844 -18.421875 24.425781 -17.96875 24.0625 -17.367188 C 23.519531 -16.476562 23.25 -15.519531 23.25 -14.492188 C 23.25 -13.652344 23.449219 -12.835938 23.847656 -12.035156 C 24.242188 -11.25 24.765625 -10.609375 25.417969 -10.113281 C 25.617188 -9.964844 25.796875 -9.847656 25.957031 -9.765625 C 25.972656 -9.757812 25.980469 -9.753906 25.980469 -9.753906 C 25.949219 -9.769531 25.910156 -9.785156 25.863281 -9.800781 C 25.46875 -9.945312 24.910156 -10.09375 24.1875 -10.25 L 15.746094 -12.050781 C 9.34375 -13.386719 4.375 -15.929688 0.84375 -19.6875 C -1.113281 -21.769531 -2.582031 -24.15625 -3.558594 -26.839844 C -4.480469 -29.367188 -4.941406 -32.101562 -4.941406 -35.039062 C -4.941406 -38.941406 -4.105469 -42.542969 -2.4375 -45.839844 C -0.792969 -49.089844 1.519531 -51.851562 4.5 -54.113281 C 7.238281 -56.195312 10.425781 -57.785156 14.058594 -58.882812 C 17.511719 -59.929688 21.285156 -60.453125 25.378906 -60.453125 C 28.503906 -60.453125 31.65625 -60.109375 34.839844 -59.425781 C 38.34375 -58.671875 41.441406 -57.503906 44.140625 -55.910156 L 39.652344 -48.304688 L 43.738281 -56.136719 C 46.589844 -54.648438 48.679688 -52.507812 50.007812 -49.722656 C 51.179688 -47.261719 51.644531 -44.6875 51.40625 -42.007812 C 51.152344 -39.167969 50.15625 -36.648438 48.40625 -34.445312 C 46.503906 -32.050781 44.03125 -30.480469 40.992188 -29.738281 C 38.027344 -29.011719 34.902344 -29.335938 31.621094 -30.710938 L 31.425781 -30.796875 C 30.691406 -31.125 29.808594 -31.382812 28.765625 -31.566406 C 27.523438 -31.789062 26.347656 -31.898438 25.234375 -31.898438 C 24.394531 -31.898438 23.792969 -31.839844 23.4375 -31.722656 C 23.484375 -31.738281 23.570312 -31.789062 23.699219 -31.867188 C 24.015625 -32.0625 24.316406 -32.328125 24.59375 -32.65625 C 25.332031 -33.535156 25.703125 -34.542969 25.703125 -35.6875 C 25.703125 -36.554688 25.503906 -37.390625 25.109375 -38.195312 C 24.761719 -38.898438 24.316406 -39.476562 23.769531 -39.929688 C 23.527344 -40.128906 23.296875 -40.289062 23.078125 -40.40625 C 23.042969 -40.425781 23.011719 -40.4375 22.992188 -40.449219 C 23.007812 -40.441406 23.03125 -40.433594 23.0625 -40.421875 C 23.414062 -40.289062 23.933594 -40.148438 24.621094 -40 L 33.003906 -38.195312 C 39.367188 -36.816406 44.3125 -34.363281 47.84375 -30.832031 C 49.882812 -28.792969 51.414062 -26.4375 52.441406 -23.769531 C 53.410156 -21.246094 53.890625 -18.515625 53.890625 -15.574219 C 53.890625 -11.683594 53.078125 -8.105469 51.445312 -4.84375 C 49.820312 -1.59375 47.519531 1.15625 44.546875 3.402344 C 41.808594 5.476562 38.59375 7.050781 34.910156 8.121094 C 31.460938 9.125 27.660156 9.625 23.503906 9.625 Z M 23.503906 -8.039062 C 25.980469 -8.039062 28.136719 -8.308594 29.976562 -8.84375 C 31.578125 -9.308594 32.882812 -9.921875 33.890625 -10.6875 C 34.667969 -11.273438 35.25 -11.960938 35.644531 -12.746094 C 36.03125 -13.519531 36.226562 -14.464844 36.226562 -15.574219 C 36.226562 -16.332031 36.132812 -16.953125 35.949219 -17.433594 C 35.820312 -17.769531 35.621094 -18.070312 35.351562 -18.339844 C 34.917969 -18.773438 34.285156 -19.1875 33.460938 -19.582031 C 32.332031 -20.117188 30.941406 -20.566406 29.285156 -20.921875 L 20.945312 -22.722656 C 17.269531 -23.503906 14.453125 -24.703125 12.496094 -26.324219 C 11.105469 -27.476562 10.027344 -28.828125 9.261719 -30.382812 C 8.445312 -32.042969 8.035156 -33.808594 8.035156 -35.6875 C 8.035156 -38.847656 9.054688 -41.636719 11.09375 -44.050781 C 12.820312 -46.097656 15.105469 -47.589844 17.945312 -48.515625 C 20.085938 -49.214844 22.515625 -49.566406 25.234375 -49.566406 C 27.386719 -49.566406 29.597656 -49.363281 31.863281 -48.960938 C 34.332031 -48.523438 36.59375 -47.839844 38.652344 -46.917969 L 35.039062 -38.859375 L 38.453125 -47.003906 C 38.515625 -46.980469 38.554688 -46.964844 38.578125 -46.957031 C 38.519531 -46.972656 38.441406 -46.988281 38.347656 -47.003906 C 37.871094 -47.070312 37.355469 -47.035156 36.796875 -46.898438 C 35.917969 -46.683594 35.179688 -46.195312 34.574219 -45.433594 C 34.125 -44.867188 33.871094 -44.246094 33.808594 -43.570312 C 33.761719 -43.050781 33.84375 -42.570312 34.054688 -42.125 C 34.421875 -41.359375 34.925781 -40.804688 35.566406 -40.472656 L 35.363281 -40.578125 L 35.164062 -40.695312 C 34.113281 -41.316406 32.765625 -41.800781 31.125 -42.15625 C 29.167969 -42.574219 27.25 -42.785156 25.378906 -42.785156 C 23.027344 -42.785156 20.960938 -42.515625 19.175781 -41.976562 C 17.570312 -41.488281 16.238281 -40.84375 15.183594 -40.042969 C 14.367188 -39.421875 13.746094 -38.695312 13.324219 -37.863281 C 12.925781 -37.074219 12.726562 -36.132812 12.726562 -35.039062 C 12.726562 -33.574219 13.058594 -32.492188 13.71875 -31.789062 C 14.109375 -31.371094 14.683594 -30.976562 15.4375 -30.609375 C 16.492188 -30.089844 17.824219 -29.664062 19.4375 -29.328125 L 27.863281 -27.527344 C 31.40625 -26.773438 34.144531 -25.667969 36.078125 -24.203125 C 37.621094 -23.035156 38.8125 -21.613281 39.648438 -19.9375 C 40.492188 -18.25 40.914062 -16.433594 40.914062 -14.492188 C 40.914062 -12.214844 40.328125 -10.109375 39.148438 -8.175781 C 38.144531 -6.527344 36.773438 -5.128906 35.039062 -3.984375 C 33.414062 -2.910156 31.464844 -2.160156 29.191406 -1.730469 C 27.539062 -1.417969 25.640625 -1.261719 23.503906 -1.261719 C 20.878906 -1.261719 18.113281 -1.5625 15.210938 -2.167969 C 12.21875 -2.789062 9.546875 -3.660156 7.199219 -4.773438 C 7.308594 -4.722656 7.488281 -4.683594 7.734375 -4.652344 C 8.296875 -4.582031 8.871094 -4.632812 9.46875 -4.800781 C 10.265625 -5.027344 10.921875 -5.480469 11.441406 -6.167969 C 11.71875 -6.539062 11.886719 -6.925781 11.9375 -7.339844 C 12.019531 -7.984375 11.910156 -8.597656 11.613281 -9.179688 C 11.386719 -9.617188 11.105469 -9.992188 10.769531 -10.296875 C 10.589844 -10.457031 10.449219 -10.566406 10.335938 -10.617188 C 11.359375 -10.125 12.558594 -9.683594 13.933594 -9.292969 C 15.382812 -8.886719 16.9375 -8.578125 18.589844 -8.367188 C 20.3125 -8.148438 21.949219 -8.039062 23.503906 -8.039062 Z M 23.503906 -8.039062 "/></g></g></g><g fill="#ffffff" fill-opacity="1"><g transform="translate(222.163166, 73.813165)"><g><path d="M 23.214844 9.480469 C 21.128906 9.480469 19.191406 9.160156 17.410156 8.519531 C 15.324219 7.765625 13.523438 6.617188 12 5.0625 C 10.488281 3.519531 9.371094 1.691406 8.652344 -0.425781 C 8.050781 -2.195312 7.75 -4.121094 7.75 -6.199219 L 7.75 -25.953125 L 24.847656 -29.066406 L 27.589844 -21.78125 L 12.066406 -13.632812 L -4.515625 -37.496094 C -6.546875 -40.363281 -7.410156 -43.574219 -7.109375 -47.140625 C -6.957031 -48.925781 -6.503906 -50.605469 -5.746094 -52.179688 C -4.992188 -53.75 -3.96875 -55.15625 -2.671875 -56.390625 C -1.203125 -57.792969 0.527344 -58.824219 2.515625 -59.484375 C 4.160156 -60.035156 5.941406 -60.308594 7.859375 -60.308594 C 10.804688 -60.308594 13.519531 -59.578125 16.007812 -58.121094 C 18.359375 -56.738281 20.398438 -54.667969 22.125 -51.902344 L 14.636719 -47.222656 L 21.941406 -52.1875 L 41.410156 -23.535156 L 5.496094 -23.535156 L 24.910156 -52.242188 C 26.625 -54.855469 28.597656 -56.824219 30.832031 -58.144531 C 33.277344 -59.585938 36.023438 -60.308594 39.074219 -60.308594 C 43.171875 -60.308594 46.5625 -59.089844 49.253906 -56.65625 C 50.636719 -55.40625 51.714844 -53.953125 52.488281 -52.304688 C 53.25 -50.683594 53.675781 -48.949219 53.773438 -47.101562 C 53.945312 -43.757812 53.011719 -40.554688 50.96875 -37.492188 L 34.441406 -13.640625 L 18.886719 -21.710938 L 21.554688 -28.992188 L 38.679688 -25.953125 L 38.679688 -6.199219 C 38.679688 -1.53125 37.296875 2.226562 34.535156 5.082031 C 33 6.664062 31.152344 7.828125 28.992188 8.574219 C 27.230469 9.179688 25.304688 9.480469 23.214844 9.480469 Z M 23.214844 -8.183594 C 23.335938 -8.183594 23.421875 -8.1875 23.480469 -8.195312 C 23.421875 -8.1875 23.34375 -8.167969 23.242188 -8.132812 C 22.738281 -7.957031 22.269531 -7.652344 21.84375 -7.207031 C 21.441406 -6.796875 21.171875 -6.363281 21.027344 -5.917969 C 21.011719 -5.871094 21 -5.832031 20.992188 -5.800781 L 20.992188 -5.804688 C 21.007812 -5.902344 21.015625 -6.035156 21.015625 -6.199219 L 21.015625 -25.953125 L 29.847656 -25.953125 L 38.140625 -22.914062 L 35.472656 -15.632812 L 27.179688 -18.671875 L 19.917969 -23.703125 L 36.265625 -47.292969 C 36.292969 -47.332031 36.308594 -47.355469 36.3125 -47.367188 C 36.289062 -47.316406 36.265625 -47.253906 36.242188 -47.179688 C 36.148438 -46.878906 36.109375 -46.546875 36.128906 -46.1875 C 36.152344 -45.734375 36.273438 -45.273438 36.492188 -44.804688 C 36.726562 -44.3125 37.027344 -43.894531 37.402344 -43.554688 C 37.835938 -43.160156 38.304688 -42.886719 38.800781 -42.726562 C 38.929688 -42.683594 39.039062 -42.65625 39.136719 -42.644531 C 39.148438 -42.640625 39.15625 -42.640625 39.15625 -42.640625 C 39.136719 -42.640625 39.109375 -42.640625 39.074219 -42.640625 C 39.058594 -42.640625 39.046875 -42.640625 39.039062 -42.640625 C 39.039062 -42.640625 39.042969 -42.640625 39.046875 -42.640625 C 39.089844 -42.648438 39.140625 -42.65625 39.199219 -42.671875 C 39.40625 -42.722656 39.613281 -42.808594 39.820312 -42.933594 C 39.992188 -43.035156 40.101562 -43.109375 40.144531 -43.15625 C 40 -43.003906 39.796875 -42.734375 39.542969 -42.34375 L 29.449219 -27.421875 L 22.132812 -32.371094 L 22.132812 -41.203125 L 24.726562 -41.203125 L 24.726562 -32.371094 L 17.421875 -27.40625 L 7.234375 -42.398438 L 7.144531 -42.539062 C 6.976562 -42.8125 6.832031 -43.007812 6.71875 -43.128906 C 6.777344 -43.066406 6.894531 -42.984375 7.0625 -42.882812 C 7.339844 -42.722656 7.601562 -42.640625 7.859375 -42.640625 C 7.816406 -42.640625 7.785156 -42.640625 7.757812 -42.640625 L 7.765625 -42.640625 C 7.859375 -42.65625 7.972656 -42.683594 8.101562 -42.726562 C 8.609375 -42.894531 9.085938 -43.1875 9.519531 -43.605469 C 9.78125 -43.855469 10.003906 -44.164062 10.179688 -44.535156 C 10.359375 -44.910156 10.464844 -45.277344 10.496094 -45.648438 C 10.558594 -46.375 10.390625 -47.015625 9.992188 -47.578125 L 26.574219 -23.714844 L 19.320312 -18.671875 L 11.054688 -15.5625 L 8.3125 -22.84375 L 16.582031 -25.953125 L 25.414062 -25.953125 L 25.414062 -6.199219 C 25.414062 -6.078125 25.417969 -5.988281 25.429688 -5.929688 C 25.421875 -5.972656 25.40625 -6.035156 25.375 -6.117188 C 25.234375 -6.539062 24.980469 -6.929688 24.621094 -7.300781 C 24.257812 -7.671875 23.847656 -7.941406 23.398438 -8.101562 C 23.277344 -8.144531 23.175781 -8.175781 23.089844 -8.1875 C 23.105469 -8.1875 23.144531 -8.183594 23.214844 -8.183594 Z M 23.214844 -8.183594 "/></g></g></g><g fill="#ffffff" fill-opacity="1"><g transform="translate(264.695373, 73.813165)"><g><path d="M 23.503906 9.625 C 21.210938 9.625 18.832031 9.472656 16.375 9.160156 C 13.847656 8.839844 11.433594 8.355469 9.136719 7.707031 C 6.761719 7.039062 4.597656 6.230469 2.640625 5.285156 C -0.433594 3.804688 -2.683594 1.667969 -4.113281 -1.132812 C -5.46875 -3.777344 -5.960938 -6.578125 -5.59375 -9.53125 C -5.253906 -12.25 -4.269531 -14.683594 -2.644531 -16.828125 C -0.78125 -19.292969 1.65625 -20.953125 4.664062 -21.800781 C 7.828125 -22.695312 11.082031 -22.394531 14.425781 -20.894531 C 15.730469 -20.277344 17.195312 -19.800781 18.816406 -19.460938 C 20.527344 -19.105469 22.089844 -18.925781 23.503906 -18.925781 C 24.535156 -18.925781 25.339844 -18.980469 25.90625 -19.089844 C 25.976562 -19.101562 26.035156 -19.113281 26.078125 -19.125 L 26.085938 -19.128906 C 26.074219 -19.125 26.058594 -19.117188 26.039062 -19.113281 C 25.816406 -19.03125 25.570312 -18.902344 25.304688 -18.726562 C 24.839844 -18.421875 24.425781 -17.96875 24.0625 -17.367188 C 23.519531 -16.476562 23.25 -15.519531 23.25 -14.492188 C 23.25 -13.652344 23.449219 -12.835938 23.847656 -12.035156 C 24.242188 -11.25 24.765625 -10.609375 25.417969 -10.113281 C 25.617188 -9.964844 25.796875 -9.847656 25.957031 -9.765625 C 25.972656 -9.757812 25.980469 -9.753906 25.980469 -9.753906 C 25.949219 -9.769531 25.910156 -9.785156 25.863281 -9.800781 C 25.46875 -9.945312 24.910156 -10.09375 24.1875 -10.25 L 15.746094 -12.050781 C 9.34375 -13.386719 4.375 -15.929688 0.84375 -19.6875 C -1.113281 -21.769531 -2.582031 -24.15625 -3.558594 -26.839844 C -4.480469 -29.367188 -4.941406 -32.101562 -4.941406 -35.039062 C -4.941406 -38.941406 -4.105469 -42.542969 -2.4375 -45.839844 C -0.792969 -49.089844 1.519531 -51.851562 4.5 -54.113281 C 7.238281 -56.195312 10.425781 -57.785156 14.058594 -58.882812 C 17.511719 -59.929688 21.285156 -60.453125 25.378906 -60.453125 C 28.503906 -60.453125 31.65625 -60.109375 34.839844 -59.425781 C 38.34375 -58.671875 41.441406 -57.503906 44.140625 -55.910156 L 39.652344 -48.304688 L 43.738281 -56.136719 C 46.589844 -54.648438 48.679688 -52.507812 50.007812 -49.722656 C 51.179688 -47.261719 51.644531 -44.6875 51.40625 -42.007812 C 51.152344 -39.167969 50.15625 -36.648438 48.40625 -34.445312 C 46.503906 -32.050781 44.03125 -30.480469 40.992188 -29.738281 C 38.027344 -29.011719 34.902344 -29.335938 31.621094 -30.710938 L 31.425781 -30.796875 C 30.691406 -31.125 29.808594 -31.382812 28.765625 -31.566406 C 27.523438 -31.789062 26.347656 -31.898438 25.234375 -31.898438 C 24.394531 -31.898438 23.792969 -31.839844 23.4375 -31.722656 C 23.484375 -31.738281 23.570312 -31.789062 23.699219 -31.867188 C 24.015625 -32.0625 24.316406 -32.328125 24.59375 -32.65625 C 25.332031 -33.535156 25.703125 -34.542969 25.703125 -35.6875 C 25.703125 -36.554688 25.503906 -37.390625 25.109375 -38.195312 C 24.761719 -38.898438 24.316406 -39.476562 23.769531 -39.929688 C 23.527344 -40.128906 23.296875 -40.289062 23.078125 -40.40625 C 23.042969 -40.425781 23.011719 -40.4375 22.992188 -40.449219 C 23.007812 -40.441406 23.03125 -40.433594 23.0625 -40.421875 C 23.414062 -40.289062 23.933594 -40.148438 24.621094 -40 L 33.003906 -38.195312 C 39.367188 -36.816406 44.3125 -34.363281 47.84375 -30.832031 C 49.882812 -28.792969 51.414062 -26.4375 52.441406 -23.769531 C 53.410156 -21.246094 53.890625 -18.515625 53.890625 -15.574219 C 53.890625 -11.683594 53.078125 -8.105469 51.445312 -4.84375 C 49.820312 -1.59375 47.519531 1.15625 44.546875 3.402344 C 41.808594 5.476562 38.59375 7.050781 34.910156 8.121094 C 31.460938 9.125 27.660156 9.625 23.503906 9.625 Z M 23.503906 -8.039062 C 25.980469 -8.039062 28.136719 -8.308594 29.976562 -8.84375 C 31.578125 -9.308594 32.882812 -9.921875 33.890625 -10.6875 C 34.667969 -11.273438 35.25 -11.960938 35.644531 -12.746094 C 36.03125 -13.519531 36.226562 -14.464844 36.226562 -15.574219 C 36.226562 -16.332031 36.132812 -16.953125 35.949219 -17.433594 C 35.820312 -17.769531 35.621094 -18.070312 35.351562 -18.339844 C 34.917969 -18.773438 34.285156 -19.1875 33.460938 -19.582031 C 32.332031 -20.117188 30.941406 -20.566406 29.285156 -20.921875 L 20.945312 -22.722656 C 17.269531 -23.503906 14.453125 -24.703125 12.496094 -26.324219 C 11.105469 -27.476562 10.027344 -28.828125 9.261719 -30.382812 C 8.445312 -32.042969 8.035156 -33.808594 8.035156 -35.6875 C 8.035156 -38.847656 9.054688 -41.636719 11.09375 -44.050781 C 12.820312 -46.097656 15.105469 -47.589844 17.945312 -48.515625 C 20.085938 -49.214844 22.515625 -49.566406 25.234375 -49.566406 C 27.386719 -49.566406 29.597656 -49.363281 31.863281 -48.960938 C 34.332031 -48.523438 36.59375 -47.839844 38.652344 -46.917969 L 35.039062 -38.859375 L 38.453125 -47.003906 C 38.515625 -46.980469 38.554688 -46.964844 38.578125 -46.957031 C 38.519531 -46.972656 38.441406 -46.988281 38.347656 -47.003906 C 37.871094 -47.070312 37.355469 -47.035156 36.796875 -46.898438 C 35.917969 -46.683594 35.179688 -46.195312 34.574219 -45.433594 C 34.125 -44.867188 33.871094 -44.246094 33.808594 -43.570312 C 33.761719 -43.050781 33.84375 -42.570312 34.054688 -42.125 C 34.421875 -41.359375 34.925781 -40.804688 35.566406 -40.472656 L 35.363281 -40.578125 L 35.164062 -40.695312 C 34.113281 -41.316406 32.765625 -41.800781 31.125 -42.15625 C 29.167969 -42.574219 27.25 -42.785156 25.378906 -42.785156 C 23.027344 -42.785156 20.960938 -42.515625 19.175781 -41.976562 C 17.570312 -41.488281 16.238281 -40.84375 15.183594 -40.042969 C 14.367188 -39.421875 13.746094 -38.695312 13.324219 -37.863281 C 12.925781 -37.074219 12.726562 -36.132812 12.726562 -35.039062 C 12.726562 -33.574219 13.058594 -32.492188 13.71875 -31.789062 C 14.109375 -31.371094 14.683594 -30.976562 15.4375 -30.609375 C 16.492188 -30.089844 17.824219 -29.664062 19.4375 -29.328125 L 27.863281 -27.527344 C 31.40625 -26.773438 34.144531 -25.667969 36.078125 -24.203125 C 37.621094 -23.035156 38.8125 -21.613281 39.648438 -19.9375 C 40.492188 -18.25 40.914062 -16.433594 40.914062 -14.492188 C 40.914062 -12.214844 40.328125 -10.109375 39.148438 -8.175781 C 38.144531 -6.527344 36.773438 -5.128906 35.039062 -3.984375 C 33.414062 -2.910156 31.464844 -2.160156 29.191406 -1.730469 C 27.539062 -1.417969 25.640625 -1.261719 23.503906 -1.261719 C 20.878906 -1.261719 18.113281 -1.5625 15.210938 -2.167969 C 12.21875 -2.789062 9.546875 -3.660156 7.199219 -4.773438 C 7.308594 -4.722656 7.488281 -4.683594 7.734375 -4.652344 C 8.296875 -4.582031 8.871094 -4.632812 9.46875 -4.800781 C 10.265625 -5.027344 10.921875 -5.480469 11.441406 -6.167969 C 11.71875 -6.539062 11.886719 -6.925781 11.9375 -7.339844 C 12.019531 -7.984375 11.910156 -8.597656 11.613281 -9.179688 C 11.386719 -9.617188 11.105469 -9.992188 10.769531 -10.296875 C 10.589844 -10.457031 10.449219 -10.566406 10.335938 -10.617188 C 11.359375 -10.125 12.558594 -9.683594 13.933594 -9.292969 C 15.382812 -8.886719 16.9375 -8.578125 18.589844 -8.367188 C 20.3125 -8.148438 21.949219 -8.039062 23.503906 -8.039062 Z M 23.503906 -8.039062 "/></g></g></g><g fill="#000000" fill-opacity="1"><g transform="translate(7.91608, 73.813165)"><g><path d="M 10.734375 0.65625 C 8.816406 0.65625 7.34375 0.128906 6.3125 -0.921875 C 5.28125 -1.984375 4.765625 -3.476562 4.765625 -5.40625 L 4.765625 -45.421875 C 4.765625 -47.390625 5.316406 -48.890625 6.421875 -49.921875 C 7.523438 -50.953125 9.085938 -51.46875 11.109375 -51.46875 C 12.785156 -51.46875 14.113281 -51.144531 15.09375 -50.5 C 16.082031 -49.851562 16.988281 -48.785156 17.8125 -47.296875 L 33.3125 -19.46875 L 30.78125 -19.46875 L 46.21875 -47.296875 C 47.082031 -48.785156 48.003906 -49.851562 48.984375 -50.5 C 49.972656 -51.144531 51.304688 -51.46875 52.984375 -51.46875 C 54.910156 -51.46875 56.390625 -50.953125 57.421875 -49.921875 C 58.453125 -48.890625 58.96875 -47.390625 58.96875 -45.421875 L 58.96875 -5.40625 C 58.96875 -3.476562 58.460938 -1.984375 57.453125 -0.921875 C 56.441406 0.128906 54.953125 0.65625 52.984375 0.65625 C 51.066406 0.65625 49.585938 0.128906 48.546875 -0.921875 C 47.515625 -1.984375 47 -3.476562 47 -5.40625 L 47 -30.203125 L 48.515625 -30.203125 L 36.90625 -10.015625 C 36.238281 -8.960938 35.53125 -8.171875 34.78125 -7.640625 C 34.039062 -7.109375 33.046875 -6.84375 31.796875 -6.84375 C 30.585938 -6.84375 29.597656 -7.109375 28.828125 -7.640625 C 28.066406 -8.171875 27.375 -8.960938 26.75 -10.015625 L 15.0625 -30.28125 L 16.71875 -30.28125 L 16.71875 -5.40625 C 16.71875 -3.476562 16.210938 -1.984375 15.203125 -0.921875 C 14.203125 0.128906 12.710938 0.65625 10.734375 0.65625 Z M 10.734375 0.65625 "/></g></g></g><g fill="#000000" fill-opacity="1"><g transform="translate(67.677868, 73.813165)"><g><path d="M 11.53125 0 C 9.269531 0 7.550781 -0.585938 6.375 -1.765625 C 5.195312 -2.941406 4.609375 -4.632812 4.609375 -6.84375 L 4.609375 -43.984375 C 4.609375 -46.191406 5.195312 -47.882812 6.375 -49.0625 C 7.550781 -50.238281 9.269531 -50.828125 11.53125 -50.828125 L 35.96875 -50.828125 C 37.695312 -50.828125 38.992188 -50.394531 39.859375 -49.53125 C 40.734375 -48.664062 41.171875 -47.414062 41.171875 -45.78125 C 41.171875 -44.09375 40.734375 -42.804688 39.859375 -41.921875 C 38.992188 -41.035156 37.695312 -40.59375 35.96875 -40.59375 L 17.296875 -40.59375 L 17.296875 -30.921875 L 34.390625 -30.921875 C 36.066406 -30.921875 37.347656 -30.488281 38.234375 -29.625 C 39.128906 -28.757812 39.578125 -27.488281 39.578125 -25.8125 C 39.578125 -24.125 39.128906 -22.847656 38.234375 -21.984375 C 37.347656 -21.117188 36.066406 -20.6875 34.390625 -20.6875 L 17.296875 -20.6875 L 17.296875 -10.234375 L 35.96875 -10.234375 C 37.695312 -10.234375 38.992188 -9.785156 39.859375 -8.890625 C 40.734375 -8.003906 41.171875 -6.75 41.171875 -5.125 C 41.171875 -3.4375 40.734375 -2.160156 39.859375 -1.296875 C 38.992188 -0.429688 37.695312 0 35.96875 0 Z M 11.53125 0 "/></g></g></g><g fill="#000000" fill-opacity="1"><g transform="translate(107.975295, 73.813165)"><g><path d="M 11.53125 0 C 9.269531 0 7.550781 -0.585938 6.375 -1.765625 C 5.195312 -2.941406 4.609375 -4.632812 4.609375 -6.84375 L 4.609375 -43.984375 C 4.609375 -46.191406 5.195312 -47.882812 6.375 -49.0625 C 7.550781 -50.238281 9.269531 -50.828125 11.53125 -50.828125 L 25.671875 -50.828125 C 34.515625 -50.828125 41.347656 -48.613281 46.171875 -44.1875 C 51.003906 -39.769531 53.421875 -33.523438 53.421875 -25.453125 C 53.421875 -21.410156 52.796875 -17.816406 51.546875 -14.671875 C 50.296875 -11.523438 48.492188 -8.859375 46.140625 -6.671875 C 43.785156 -4.484375 40.890625 -2.820312 37.453125 -1.6875 C 34.015625 -0.5625 30.085938 0 25.671875 0 Z M 17.875 -10.734375 L 24.796875 -10.734375 C 27.347656 -10.734375 29.546875 -11.046875 31.390625 -11.671875 C 33.242188 -12.296875 34.78125 -13.207031 36 -14.40625 C 37.226562 -15.613281 38.144531 -17.128906 38.75 -18.953125 C 39.351562 -20.785156 39.65625 -22.953125 39.65625 -25.453125 C 39.65625 -30.453125 38.425781 -34.140625 35.96875 -36.515625 C 33.519531 -38.890625 29.796875 -40.078125 24.796875 -40.078125 L 17.875 -40.078125 Z M 17.875 -10.734375 "/></g></g></g><g fill="#000000" fill-opacity="1"><g transform="translate(160.67225, 73.813165)"><g><path d="M 11.25 0.65625 C 9.132812 0.65625 7.5 0.0664062 6.34375 -1.109375 C 5.1875 -2.296875 4.609375 -3.96875 4.609375 -6.125 L 4.609375 -44.703125 C 4.609375 -46.910156 5.1875 -48.585938 6.34375 -49.734375 C 7.5 -50.890625 9.132812 -51.46875 11.25 -51.46875 C 13.40625 -51.46875 15.046875 -50.890625 16.171875 -49.734375 C 17.304688 -48.585938 17.875 -46.910156 17.875 -44.703125 L 17.875 -6.125 C 17.875 -3.96875 17.320312 -2.296875 16.21875 -1.109375 C 15.113281 0.0664062 13.457031 0.65625 11.25 0.65625 Z M 11.25 0.65625 "/></g></g></g><g fill="#000000" fill-opacity="1"><g transform="translate(179.198404, 73.813165)"><g><path d="M 23.5 0.796875 C 21.582031 0.796875 19.578125 0.660156 17.484375 0.390625 C 15.390625 0.128906 13.40625 -0.265625 11.53125 -0.796875 C 9.65625 -1.328125 7.972656 -1.953125 6.484375 -2.671875 C 5.191406 -3.296875 4.28125 -4.125 3.75 -5.15625 C 3.21875 -6.1875 3.023438 -7.28125 3.171875 -8.4375 C 3.316406 -9.59375 3.722656 -10.613281 4.390625 -11.5 C 5.066406 -12.382812 5.957031 -12.984375 7.0625 -13.296875 C 8.164062 -13.609375 9.414062 -13.453125 10.8125 -12.828125 C 12.632812 -11.960938 14.695312 -11.289062 17 -10.8125 C 19.3125 -10.332031 21.476562 -10.09375 23.5 -10.09375 C 26.675781 -10.09375 28.898438 -10.507812 30.171875 -11.34375 C 31.441406 -12.1875 32.078125 -13.234375 32.078125 -14.484375 C 32.078125 -15.597656 31.632812 -16.488281 30.75 -17.15625 C 29.863281 -17.832031 28.289062 -18.410156 26.03125 -18.890625 L 17.59375 -20.6875 C 12.976562 -21.644531 9.539062 -23.328125 7.28125 -25.734375 C 5.019531 -28.140625 3.890625 -31.238281 3.890625 -35.03125 C 3.890625 -37.53125 4.40625 -39.800781 5.4375 -41.84375 C 6.476562 -43.894531 7.945312 -45.640625 9.84375 -47.078125 C 11.738281 -48.515625 13.992188 -49.628906 16.609375 -50.421875 C 19.234375 -51.222656 22.15625 -51.625 25.375 -51.625 C 27.875 -51.625 30.410156 -51.347656 32.984375 -50.796875 C 35.554688 -50.242188 37.78125 -49.410156 39.65625 -48.296875 C 40.757812 -47.722656 41.550781 -46.929688 42.03125 -45.921875 C 42.507812 -44.910156 42.703125 -43.863281 42.609375 -42.78125 C 42.515625 -41.707031 42.140625 -40.757812 41.484375 -39.9375 C 40.835938 -39.125 39.972656 -38.582031 38.890625 -38.3125 C 37.804688 -38.050781 36.519531 -38.234375 35.03125 -38.859375 C 33.644531 -39.484375 32.070312 -39.953125 30.3125 -40.265625 C 28.5625 -40.578125 26.867188 -40.734375 25.234375 -40.734375 C 23.453125 -40.734375 21.9375 -40.523438 20.6875 -40.109375 C 19.4375 -39.703125 18.488281 -39.113281 17.84375 -38.34375 C 17.195312 -37.582031 16.875 -36.695312 16.875 -35.6875 C 16.875 -34.675781 17.289062 -33.820312 18.125 -33.125 C 18.96875 -32.425781 20.519531 -31.835938 22.78125 -31.359375 L 31.140625 -29.5625 C 35.804688 -28.550781 39.289062 -26.890625 41.59375 -24.578125 C 43.90625 -22.273438 45.0625 -19.273438 45.0625 -15.578125 C 45.0625 -13.078125 44.554688 -10.816406 43.546875 -8.796875 C 42.535156 -6.773438 41.09375 -5.054688 39.21875 -3.640625 C 37.34375 -2.222656 35.082031 -1.128906 32.4375 -0.359375 C 29.800781 0.410156 26.820312 0.796875 23.5 0.796875 Z M 23.5 0.796875 "/></g></g></g><g fill="#000000" fill-opacity="1"><g transform="translate(222.163166, 73.813165)"><g><path d="M 23.21875 0.65625 C 21.101562 0.65625 19.46875 0.0664062 18.3125 -1.109375 C 17.15625 -2.296875 16.578125 -3.992188 16.578125 -6.203125 L 16.578125 -25.953125 L 19.328125 -18.671875 L 2.734375 -42.53125 C 1.921875 -43.6875 1.570312 -44.972656 1.6875 -46.390625 C 1.8125 -47.804688 2.390625 -49.003906 3.421875 -49.984375 C 4.453125 -50.972656 5.929688 -51.46875 7.859375 -51.46875 C 9.203125 -51.46875 10.425781 -51.144531 11.53125 -50.5 C 12.632812 -49.851562 13.671875 -48.757812 14.640625 -47.21875 L 24.734375 -32.375 L 22.125 -32.375 L 32.21875 -47.296875 C 33.226562 -48.828125 34.257812 -49.90625 35.3125 -50.53125 C 36.375 -51.15625 37.628906 -51.46875 39.078125 -51.46875 C 40.898438 -51.46875 42.316406 -51.007812 43.328125 -50.09375 C 44.335938 -49.1875 44.878906 -48.035156 44.953125 -46.640625 C 45.023438 -45.242188 44.578125 -43.828125 43.609375 -42.390625 L 27.171875 -18.671875 L 29.84375 -25.953125 L 29.84375 -6.203125 C 29.84375 -1.628906 27.632812 0.65625 23.21875 0.65625 Z M 23.21875 0.65625 "/></g></g></g><g fill="#000000" fill-opacity="1"><g transform="translate(264.695373, 73.813165)"><g><path d="M 23.5 0.796875 C 21.582031 0.796875 19.578125 0.660156 17.484375 0.390625 C 15.390625 0.128906 13.40625 -0.265625 11.53125 -0.796875 C 9.65625 -1.328125 7.972656 -1.953125 6.484375 -2.671875 C 5.191406 -3.296875 4.28125 -4.125 3.75 -5.15625 C 3.21875 -6.1875 3.023438 -7.28125 3.171875 -8.4375 C 3.316406 -9.59375 3.722656 -10.613281 4.390625 -11.5 C 5.066406 -12.382812 5.957031 -12.984375 7.0625 -13.296875 C 8.164062 -13.609375 9.414062 -13.453125 10.8125 -12.828125 C 12.632812 -11.960938 14.695312 -11.289062 17 -10.8125 C 19.3125 -10.332031 21.476562 -10.09375 23.5 -10.09375 C 26.675781 -10.09375 28.898438 -10.507812 30.171875 -11.34375 C 31.441406 -12.1875 32.078125 -13.234375 32.078125 -14.484375 C 32.078125 -15.597656 31.632812 -16.488281 30.75 -17.15625 C 29.863281 -17.832031 28.289062 -18.410156 26.03125 -18.890625 L 17.59375 -20.6875 C 12.976562 -21.644531 9.539062 -23.328125 7.28125 -25.734375 C 5.019531 -28.140625 3.890625 -31.238281 3.890625 -35.03125 C 3.890625 -37.53125 4.40625 -39.800781 5.4375 -41.84375 C 6.476562 -43.894531 7.945312 -45.640625 9.84375 -47.078125 C 11.738281 -48.515625 13.992188 -49.628906 16.609375 -50.421875 C 19.234375 -51.222656 22.15625 -51.625 25.375 -51.625 C 27.875 -51.625 30.410156 -51.347656 32.984375 -50.796875 C 35.554688 -50.242188 37.78125 -49.410156 39.65625 -48.296875 C 40.757812 -47.722656 41.550781 -46.929688 42.03125 -45.921875 C 42.507812 -44.910156 42.703125 -43.863281 42.609375 -42.78125 C 42.515625 -41.707031 42.140625 -40.757812 41.484375 -39.9375 C 40.835938 -39.125 39.972656 -38.582031 38.890625 -38.3125 C 37.804688 -38.050781 36.519531 -38.234375 35.03125 -38.859375 C 33.644531 -39.484375 32.070312 -39.953125 30.3125 -40.265625 C 28.5625 -40.578125 26.867188 -40.734375 25.234375 -40.734375 C 23.453125 -40.734375 21.9375 -40.523438 20.6875 -40.109375 C 19.4375 -39.703125 18.488281 -39.113281 17.84375 -38.34375 C 17.195312 -37.582031 16.875 -36.695312 16.875 -35.6875 C 16.875 -34.675781 17.289062 -33.820312 18.125 -33.125 C 18.96875 -32.425781 20.519531 -31.835938 22.78125 -31.359375 L 31.140625 -29.5625 C 35.804688 -28.550781 39.289062 -26.890625 41.59375 -24.578125 C 43.90625 -22.273438 45.0625 -19.273438 45.0625 -15.578125 C 45.0625 -13.078125 44.554688 -10.816406 43.546875 -8.796875 C 42.535156 -6.773438 41.09375 -5.054688 39.21875 -3.640625 C 37.34375 -2.222656 35.082031 -1.128906 32.4375 -0.359375 C 29.800781 0.410156 26.820312 0.796875 23.5 0.796875 Z M 23.5 0.796875 "/></g></g></g></g></g></svg>